<?xml version="1.0" standalone="no"?>
<!DOCTYPE svg PUBLIC "-//W3C//DTD SVG 20010904//EN"
 "http://www.w3.org/TR/2001/REC-SVG-20010904/DTD/svg10.dtd">
<svg version="1.0" xmlns="http://www.w3.org/2000/svg"
 width="450.000000pt" height="253.000000pt" viewBox="0 0 450.000000 253.000000"
 preserveAspectRatio="xMidYMid meet">
<metadata>
Created by potrace 1.10, written by Peter Selinger 2001-2011
</metadata>
<g transform="translate(0.000000,253.000000) scale(0.100000,-0.100000)"
fill="#000000" stroke="none">
<path d="M1871 2512 c-1 -15 -12 -27 -36 -39 -19 -9 -35 -21 -35 -26 0 -5 15
1 34 12 44 27 49 26 42 -6 -5 -21 -4 -24 4 -13 8 12 10 10 10 -12 0 -15 4 -29
9 -32 5 -4 3 22 -5 56 -18 78 -22 89 -23 60z"/>
<path d="M2032 2501 c-1 -25 -1 -25 13 -7 18 24 19 33 2 33 -7 0 -14 -12 -15
-26z"/>
<path d="M2270 2521 c0 -6 4 -12 8 -15 5 -3 9 1 9 9 0 8 -4 15 -9 15 -4 0 -8
-4 -8 -9z"/>
<path d="M2786 2503 c-11 -14 -14 -23 -8 -19 7 4 12 2 12 -3 0 -6 -6 -11 -14
-11 -16 0 -31 -34 -21 -50 3 -5 0 -10 -7 -10 -9 0 -9 -3 2 -10 14 -9 7 -15
-14 -11 -5 1 -6 -5 -2 -14 5 -14 3 -14 -24 0 -17 9 -30 21 -30 28 0 6 -7 3
-15 -7 -8 -11 -15 -25 -15 -30 0 -6 4 -5 9 3 8 12 14 13 35 3 27 -12 32 -27
17 -51 -10 -16 -4 -41 10 -41 5 0 8 3 7 8 -1 4 9 30 21 57 13 28 27 63 32 78
7 25 6 27 -6 17 -10 -8 -15 -9 -15 -2 0 6 9 16 19 21 18 10 47 71 33 71 -4 0
-16 -12 -26 -27z"/>
<path d="M1614 2505 c-5 -13 -9 -14 -15 -4 -4 8 -12 10 -16 5 -4 -5 -2 -11 5
-13 6 -3 13 -14 13 -26 1 -20 2 -20 6 -2 3 11 12 25 21 31 11 8 12 13 3 18 -6
4 -14 0 -17 -9z"/>
<path d="M1790 2485 c0 -8 2 -15 4 -15 2 0 6 7 10 15 3 8 1 15 -4 15 -6 0 -10
-7 -10 -15z"/>
<path d="M1771 2454 c0 -11 3 -14 6 -6 3 7 2 16 -1 19 -3 4 -6 -2 -5 -13z"/>
<path d="M2300 2440 c0 -5 5 -10 11 -10 5 0 7 5 4 10 -3 6 -8 10 -11 10 -2 0
-4 -4 -4 -10z"/>
<path d="M2880 2431 c0 -6 5 -13 10 -16 6 -3 10 1 10 9 0 9 -4 16 -10 16 -5 0
-10 -4 -10 -9z"/>
<path d="M2910 2425 c0 -8 5 -15 10 -15 6 0 10 7 10 15 0 8 -4 15 -10 15 -5 0
-10 -7 -10 -15z"/>
<path d="M1781 2420 c0 -8 4 -24 9 -35 5 -13 9 -14 9 -5 0 8 -4 24 -9 35 -5
13 -9 14 -9 5z"/>
<path d="M1807 2410 c8 -30 21 -34 15 -5 -2 14 -8 25 -12 25 -5 0 -6 -9 -3
-20z"/>
<path d="M1591 2413 c0 -7 -8 -13 -16 -13 -21 0 -42 -47 -28 -61 19 -19 70 -1
76 27 3 15 0 24 -9 24 -7 0 -15 8 -17 18 -3 9 -5 11 -6 5z m4 -33 c-3 -5 -1
-10 4 -10 6 0 11 -4 11 -10 0 -5 -14 -10 -32 -10 -31 0 -31 0 -12 19 20 21 39
28 29 11z"/>
<path d="M1866 2358 c3 -5 10 -6 15 -3 13 9 11 12 -6 12 -8 0 -12 -4 -9 -9z"/>
<path d="M2893 2324 c-7 -7 -13 -18 -13 -24 0 -14 17 -13 23 3 3 9 7 9 20 -2
26 -21 20 -33 -13 -26 -19 4 -30 3 -30 -4 0 -16 67 -13 73 3 7 16 -21 59 -33
51 -4 -3 -10 -1 -12 4 -1 5 -9 3 -15 -5z"/>
<path d="M1638 2323 c6 -2 9 -10 6 -15 -4 -7 -2 -8 5 -4 13 9 5 26 -12 25 -9
0 -8 -2 1 -6z"/>
<path d="M1642 2293 c-12 -2 -34 -10 -48 -18 -19 -9 -21 -14 -10 -18 8 -3 16
-2 18 4 2 5 20 10 40 11 26 1 35 5 31 15 -3 7 -6 12 -7 12 0 -1 -11 -4 -24 -6z"/>
<path d="M2726 2252 c-3 -5 1 -9 9 -9 8 0 12 4 9 9 -3 4 -7 8 -9 8 -2 0 -6 -4
-9 -8z"/>
<path d="M1528 2243 c7 -3 16 -2 19 1 4 3 -2 6 -13 5 -11 0 -14 -3 -6 -6z"/>
<path d="M1810 2240 c-12 -7 -10 -9 7 -7 12 0 19 5 17 9 -6 10 -6 10 -24 -2z"/>
<path d="M1668 2229 c-31 -4 -72 -13 -90 -18 -28 -9 -24 -10 27 -5 79 7 176
22 183 29 7 7 -51 4 -120 -6z"/>
<path d="M2810 2222 c0 -6 17 -15 38 -21 20 -5 46 -11 57 -14 11 -3 29 -8 40
-12 12 -4 10 -1 -5 8 -14 8 -43 18 -65 22 -22 4 -46 11 -52 17 -9 7 -13 7 -13
0z"/>
<path d="M2723 2205 c0 -7 6 -11 14 -8 7 3 13 6 13 8 0 2 -6 5 -13 8 -8 3 -14
-1 -14 -8z"/>
<path d="M2618 2158 c5 -5 16 -8 23 -6 8 3 3 7 -10 11 -17 4 -21 3 -13 -5z"/>
<path d="M2682 2155 c5 -5 20 -9 35 -11 188 -18 339 -27 333 -22 -5 6 -157 24
-290 34 -47 4 -82 3 -78 -1z"/>
<path d="M1714 2124 c-18 -14 -18 -15 4 -4 12 6 22 13 22 15 0 8 -5 6 -26 -11z"/>
<path d="M3060 2127 c0 -8 7 -14 15 -14 8 0 15 6 15 14 0 7 -7 13 -15 13 -8 0
-15 -6 -15 -13z"/>
<path d="M3108 2113 c6 -2 18 -2 25 0 6 3 1 5 -13 5 -14 0 -19 -2 -12 -5z"/>
<path d="M1857 1976 c-5 -13 0 -16 26 -15 21 1 25 3 12 6 -11 3 -23 10 -26 15
-3 5 -9 3 -12 -6z"/>
<path d="M1158 1933 c7 -3 16 -2 19 1 4 3 -2 6 -13 5 -11 0 -14 -3 -6 -6z"/>
<path d="M1318 1933 c7 -3 16 -2 19 1 4 3 -2 6 -13 5 -11 0 -14 -3 -6 -6z"/>
<path d="M1633 1933 c9 -2 23 -2 30 0 6 3 -1 5 -18 5 -16 0 -22 -2 -12 -5z"/>
<path d="M1788 1933 c18 -2 45 -2 60 0 15 2 0 4 -33 4 -33 0 -45 -2 -27 -4z"/>
<path d="M2483 1933 c20 -2 54 -2 75 0 20 2 3 4 -38 4 -41 0 -58 -2 -37 -4z"/>
<path d="M2825 1933 c168 -3 231 -7 237 -16 6 -9 8 -8 8 3 0 13 1 13 10 0 8
-13 10 -12 10 3 0 16 -18 17 -247 15 l-248 -3 230 -2z"/>
<path d="M3123 1933 c9 -2 25 -2 35 0 9 3 1 5 -18 5 -19 0 -27 -2 -17 -5z"/>
<path d="M3238 1933 c7 -3 16 -2 19 1 4 3 -2 6 -13 5 -11 0 -14 -3 -6 -6z"/>
<path d="M2790 1910 c0 -5 5 -10 11 -10 5 0 7 5 4 10 -3 6 -8 10 -11 10 -2 0
-4 -4 -4 -10z"/>
<path d="M2056 1890 l-40 -5 2 -67 c1 -37 -3 -70 -9 -73 -8 -6 -3 -93 6 -103
2 -2 6 47 10 108 5 68 11 107 16 98 7 -10 9 -10 9 0 0 7 14 12 35 12 l35 0 0
-55 c0 -39 3 -53 13 -50 8 4 12 -5 11 -25 -2 -45 -6 -48 -14 -15 l-8 30 -1
-31 c-1 -28 -3 -30 -32 -26 -26 4 -30 8 -26 29 2 13 -1 26 -7 30 -6 3 -8 3 -5
-1 4 -4 3 -23 -1 -42 l-8 -34 77 1 c42 1 68 3 59 6 -14 3 -18 15 -18 50 l0 45
76 -4 c52 -2 78 -8 84 -18 8 -12 10 -11 10 7 0 16 -5 20 -20 16 -11 -3 -20 0
-20 6 0 6 -7 11 -15 11 -9 0 -15 10 -16 28 -1 20 -3 22 -6 7 -9 -43 -11 -45
-37 -35 -16 6 -27 6 -31 -1 -4 -5 -11 -7 -16 -4 -5 4 -9 1 -9 -4 0 -6 -6 -11
-12 -11 -8 0 -13 15 -13 40 -1 44 5 48 70 45 22 -1 57 -2 79 -3 36 -2 38 -3
34 -31 -2 -17 -1 -28 4 -25 4 3 8 16 8 30 0 21 5 24 34 24 24 0 36 -5 39 -17
3 -11 5 -8 6 9 l1 28 -192 3 -193 2 198 3 197 2 1 -57 c1 -32 4 -85 8 -118 5
-51 7 -56 14 -32 4 15 3 45 -3 67 -6 22 -9 64 -7 95 3 36 0 55 -7 56 -51 4
-339 3 -370 -1z"/>
<path d="M1018 1883 c7 -3 16 -2 19 1 4 3 -2 6 -13 5 -11 0 -14 -3 -6 -6z"/>
<path d="M1278 1883 c7 -3 16 -2 19 1 4 3 -2 6 -13 5 -11 0 -14 -3 -6 -6z"/>
<path d="M1318 1883 c7 -3 16 -2 19 1 4 3 -2 6 -13 5 -11 0 -14 -3 -6 -6z"/>
<path d="M1408 1883 c7 -3 16 -2 19 1 4 3 -2 6 -13 5 -11 0 -14 -3 -6 -6z"/>
<path d="M1643 1883 c9 -2 23 -2 30 0 6 3 -1 5 -18 5 -16 0 -22 -2 -12 -5z"/>
<path d="M1823 1883 c15 -2 37 -2 50 0 12 2 0 4 -28 4 -27 0 -38 -2 -22 -4z"/>
<path d="M1948 1883 c7 -3 16 -2 19 1 4 3 -2 6 -13 5 -11 0 -14 -3 -6 -6z"/>
<path d="M2548 1883 c7 -3 16 -2 19 1 4 3 -2 6 -13 5 -11 0 -14 -3 -6 -6z"/>
<path d="M2858 1883 c183 -3 202 -5 203 -21 0 -14 2 -14 8 3 8 20 8 20 13 0 4
-15 6 -16 7 -3 0 9 11 19 24 21 12 2 -86 4 -218 3 l-240 -1 203 -2z"/>
<path d="M3158 1883 c12 -2 30 -2 40 0 9 3 -1 5 -23 4 -22 0 -30 -2 -17 -4z"/>
<path d="M3248 1883 c18 -2 45 -2 60 0 15 2 0 4 -33 4 -33 0 -45 -2 -27 -4z"/>
<path d="M2750 1859 c-34 -3 -3 -6 80 -6 131 0 142 3 30 9 -30 2 -80 0 -110
-3z"/>
<path d="M3008 1853 c6 -2 18 -2 25 0 6 3 1 5 -13 5 -14 0 -19 -2 -12 -5z"/>
<path d="M2768 1823 c18 -2 45 -2 60 0 15 2 0 4 -33 4 -33 0 -45 -2 -27 -4z"/>
<path d="M2873 1823 c9 -2 25 -2 35 0 9 3 1 5 -18 5 -19 0 -27 -2 -17 -5z"/>
<path d="M2963 1823 c9 -2 23 -2 30 0 6 3 -1 5 -18 5 -16 0 -22 -2 -12 -5z"/>
<path d="M2613 1793 c9 -2 23 -2 30 0 6 3 -1 5 -18 5 -16 0 -22 -2 -12 -5z"/>
<path d="M2748 1793 c6 -2 18 -2 25 0 6 3 1 5 -13 5 -14 0 -19 -2 -12 -5z"/>
<path d="M2838 1793 c6 -2 18 -2 25 0 6 3 1 5 -13 5 -14 0 -19 -2 -12 -5z"/>
<path d="M2170 1725 l0 -35 55 0 c48 0 55 2 55 20 0 11 -4 20 -10 20 -5 0 -7
-8 -4 -17 5 -16 4 -17 -8 -2 -11 13 -16 14 -25 4 -7 -8 -22 -11 -35 -7 -22 6
-21 7 7 13 24 5 26 7 7 8 -13 0 -21 5 -18 10 3 4 24 6 46 4 24 -2 40 0 40 7 0
6 -23 10 -55 10 l-55 0 0 -35z"/>
<path d="M2295 1730 c-4 -6 1 -10 9 -10 10 0 16 -9 16 -22 -1 -22 -1 -23 -15
-4 -12 16 -15 17 -15 4 0 -9 -6 -19 -12 -21 -7 -3 19 -6 59 -6 55 -1 71 2 67
12 -3 8 -17 11 -39 9 -30 -4 -35 -1 -35 16 0 21 -26 37 -35 22z"/>
<path d="M2209 1643 c5 -16 7 -37 5 -47 -5 -34 25 5 32 42 6 29 4 32 -19 32
-23 0 -25 -3 -18 -27z"/>
<path d="M2037 1637 c-3 -9 4 -12 27 -9 17 2 47 0 66 -6 30 -7 35 -13 33 -37
-1 -15 0 -25 4 -22 3 3 12 0 20 -8 17 -18 62 -19 84 -2 9 7 16 23 15 36 -1 29
22 38 99 40 37 1 46 4 35 11 -21 14 -157 10 -157 -4 1 -53 -4 -76 -19 -76 -9
0 -12 5 -8 12 4 7 3 8 -5 4 -6 -4 -9 -12 -6 -17 8 -11 -6 -12 -24 0 -7 5 -11
13 -8 17 3 5 -1 24 -8 42 -14 31 -15 32 -78 32 -44 0 -66 -4 -70 -13z"/>
<path d="M2040 1184 c-14 -8 -35 -13 -48 -10 -16 2 -20 0 -13 -7 12 -12 91 8
91 23 0 6 -1 10 -2 9 -2 -1 -14 -7 -28 -15z"/>
<path d="M1939 1173 c-13 -16 -12 -17 4 -4 16 13 21 21 13 21 -2 0 -10 -8 -17
-17z"/>
<path d="M2085 1170 c-3 -5 -1 -10 4 -10 6 0 11 5 11 10 0 6 -2 10 -4 10 -3 0
-8 -4 -11 -10z"/>
<path d="M2445 1167 c17 -8 32 -13 34 -11 7 7 -3 12 -34 19 l-30 6 30 -14z"/>
<path d="M2517 1169 c7 -7 15 -10 18 -7 3 3 -2 9 -12 12 -14 6 -15 5 -6 -5z"/>
<path d="M1487 1152 c1 -8 3 -16 3 -18 0 -2 8 -4 18 -3 12 0 13 2 3 6 -11 5
-11 7 0 15 11 8 10 9 -3 5 -9 -3 -19 -3 -21 1 -2 4 -2 1 0 -6z"/>
<path d="M2158 1163 c6 -2 18 -2 25 0 6 3 1 5 -13 5 -14 0 -19 -2 -12 -5z"/>
<path d="M2394 1162 c3 -5 0 -13 -6 -15 -9 -4 -10 -6 -1 -6 17 -1 25 16 12 25
-7 4 -9 3 -5 -4z"/>
<path d="M2920 1150 c-21 -7 -21 -8 -5 -9 11 0 27 4 35 9 18 11 5 11 -30 0z"/>
<path d="M1615 1140 c-2 -3 9 -6 25 -6 17 0 27 2 25 5 -8 7 -45 9 -50 1z"/>
<path d="M2073 1143 c9 -2 25 -2 35 0 9 3 1 5 -18 5 -19 0 -27 -2 -17 -5z"/>
<path d="M2138 1143 c6 -2 18 -2 25 0 6 3 1 5 -13 5 -14 0 -19 -2 -12 -5z"/>
<path d="M2198 1143 c7 -3 16 -2 19 1 4 3 -2 6 -13 5 -11 0 -14 -3 -6 -6z"/>
<path d="M2489 1148 c-8 -29 -5 -38 14 -38 20 1 20 2 4 11 -9 6 -15 14 -12 20
4 5 4 9 1 9 -3 0 -6 -1 -7 -2z"/>
<path d="M1745 1130 c-3 -5 1 -10 10 -10 9 0 13 5 10 10 -3 6 -8 10 -10 10 -2
0 -7 -4 -10 -10z"/>
<path d="M1805 1130 c-3 -5 1 -10 10 -10 9 0 13 5 10 10 -3 6 -8 10 -10 10 -2
0 -7 -4 -10 -10z"/>
<path d="M1875 1130 c-3 -5 -1 -10 4 -10 6 0 11 5 11 10 0 6 -2 10 -4 10 -3 0
-8 -4 -11 -10z"/>
<path d="M2010 1125 c0 -8 2 -15 4 -15 2 0 6 7 10 15 3 8 1 15 -4 15 -6 0 -10
-7 -10 -15z"/>
<path d="M2430 1125 c0 -9 9 -15 21 -15 18 0 19 2 9 15 -7 8 -16 15 -21 15 -5
0 -9 -7 -9 -15z"/>
<path d="M2946 1131 c-3 -5 7 -16 22 -25 l27 -17 -22 19 c-12 11 -19 22 -16
26 4 3 4 6 0 6 -3 0 -8 -4 -11 -9z"/>
<path d="M1538 1123 c6 -2 18 -2 25 0 6 3 1 5 -13 5 -14 0 -19 -2 -12 -5z"/>
<path d="M2034 1119 c-2 -3 24 -6 57 -6 33 0 62 3 64 7 2 4 -23 7 -56 6 -33 0
-62 -3 -65 -7z"/>
<path d="M2170 1120 c0 -5 11 -10 25 -10 14 0 25 5 25 10 0 6 -11 10 -25 10
-14 0 -25 -4 -25 -10z"/>
<path d="M2230 1119 c0 -5 5 -7 10 -4 6 3 10 8 10 11 0 2 -4 4 -10 4 -5 0 -10
-5 -10 -11z"/>
<path d="M2260 1119 c0 -5 9 -9 20 -9 11 0 20 4 20 8 0 4 -9 8 -20 9 -11 1
-20 -2 -20 -8z"/>
<path d="M2335 1120 c-3 -5 1 -10 10 -10 9 0 13 5 10 10 -3 6 -8 10 -10 10 -2
0 -7 -4 -10 -10z"/>
<path d="M2540 1120 c0 -5 5 -10 11 -10 5 0 7 5 4 10 -3 6 -8 10 -11 10 -2 0
-4 -4 -4 -10z"/>
<path d="M2688 1123 c6 -2 18 -2 25 0 6 3 1 5 -13 5 -14 0 -19 -2 -12 -5z"/>
<path d="M1606 1113 c-4 -5 -12 -8 -17 -8 -5 0 -9 -3 -9 -7 0 -5 0 -11 0 -15
0 -3 8 1 18 9 9 9 26 18 37 21 19 5 19 5 -1 6 -11 0 -24 -2 -28 -6z"/>
<path d="M1938 1113 c6 -2 18 -2 25 0 6 3 1 5 -13 5 -14 0 -19 -2 -12 -5z"/>
<path d="M2823 1109 c11 -7 23 -7 28 -2 5 5 -3 9 -19 11 -24 1 -25 0 -9 -9z"/>
<path d="M1684 1087 c-10 -12 -12 -16 -4 -9 36 31 28 7 -11 -35 -24 -27 -47
-47 -50 -46 -3 1 -24 -17 -45 -40 -23 -25 -27 -31 -8 -14 23 21 33 24 42 15 7
-7 13 -9 13 -5 1 4 2 10 3 15 2 14 59 83 64 77 8 -8 32 16 26 26 -3 5 2 12 10
15 22 8 20 19 -3 21 -11 1 -27 -8 -37 -20z m-67 -112 c0 -8 -4 -12 -9 -9 -5 3
-6 10 -3 15 9 13 12 11 12 -6z"/>
<path d="M1764 1088 l-19 -23 25 20 c14 11 27 21 29 22 2 2 0 3 -6 3 -5 0 -18
-10 -29 -22z"/>
<path d="M1811 1106 c7 -7 69 -15 65 -7 -3 4 -19 8 -37 9 -18 1 -31 1 -28 -2z"/>
<path d="M2661 1091 c27 -22 32 -21 23 3 -3 9 -15 16 -26 16 -19 0 -19 -1 3
-19z"/>
<path d="M2697 1094 c2 -7 12 -15 20 -18 12 -5 13 -4 5 7 -7 8 -10 16 -7 19 3
2 -1 5 -9 5 -8 0 -12 -6 -9 -13z"/>
<path d="M2750 1101 c0 -6 4 -13 10 -16 6 -3 7 1 4 9 -7 18 -14 21 -14 7z"/>
<path d="M1936 1092 c-3 -5 1 -9 9 -9 8 0 15 4 15 9 0 4 -4 8 -9 8 -6 0 -12
-4 -15 -8z"/>
<path d="M2098 1093 c7 -3 16 -2 19 1 4 3 -2 6 -13 5 -11 0 -14 -3 -6 -6z"/>
<path d="M2160 1092 c0 -5 7 -9 15 -9 8 0 15 4 15 9 0 4 -7 8 -15 8 -8 0 -15
-4 -15 -8z"/>
<path d="M2260 1062 c0 -41 -1 -42 -32 -40 -23 2 -35 9 -40 23 -6 19 -6 18 -7
-2 -1 -18 -7 -23 -27 -23 -23 0 -25 3 -20 25 4 14 2 25 -4 25 -5 0 -10 -13
-10 -30 0 -25 -4 -30 -25 -30 -17 0 -25 6 -26 18 0 9 -5 2 -10 -16 -6 -19 -15
-31 -22 -29 -7 2 -20 -2 -29 -11 -16 -13 -17 -12 -8 19 5 18 8 35 5 37 -2 2
-7 -10 -12 -27 -4 -17 -12 -30 -16 -29 -10 3 -31 -31 -24 -38 2 -2 35 9 72 26
45 20 99 34 161 42 l94 12 0 31 c0 16 -5 37 -10 45 -7 11 -10 4 -10 -28z"/>
<path d="M2376 1085 c4 -8 8 -15 10 -15 2 0 4 7 4 15 0 8 -4 15 -10 15 -5 0
-7 -7 -4 -15z"/>
<path d="M2445 1090 c3 -5 8 -10 11 -10 2 0 4 5 4 10 0 6 -5 10 -11 10 -5 0
-7 -4 -4 -10z"/>
<path d="M2471 1084 c0 -11 3 -14 6 -6 3 7 2 16 -1 19 -3 4 -6 -2 -5 -13z"/>
<path d="M2505 1091 c11 -5 20 -13 20 -18 0 -19 58 -132 66 -127 10 6 22 -33
14 -46 -3 -5 -2 -10 3 -10 4 0 16 -15 26 -32 9 -18 14 -24 10 -13 -25 73 -37
101 -47 110 -21 17 -60 112 -52 126 5 8 4 10 -3 5 -7 -4 -12 -2 -12 3 0 6 -10
11 -22 10 -22 0 -22 -1 -3 -8z"/>
<path d="M2560 1093 c0 -6 8 -17 18 -24 16 -13 16 -13 2 6 -8 11 -16 22 -17
24 -2 2 -3 0 -3 -6z"/>
<path d="M2332 1070 c0 -14 2 -19 5 -12 2 6 2 18 0 25 -3 6 -5 1 -5 -13z"/>
<path d="M3023 1058 c28 -36 71 -70 94 -74 16 -3 58 -33 58 -41 0 -4 9 -9 19
-10 12 -2 3 10 -25 32 -24 19 -48 35 -52 35 -5 0 -5 6 -1 13 6 9 5 9 -7 0 -11
-9 -18 -8 -32 2 -12 8 -14 15 -7 20 5 3 8 11 4 16 -3 5 -9 7 -14 4 -4 -2 -20
5 -36 18 l-29 22 28 -37z m47 -14 c0 -8 -19 -13 -24 -6 -3 5 1 9 9 9 8 0 15
-2 15 -3z"/>
<path d="M1779 1040 c-36 -45 -49 -47 -24 -3 l17 28 -26 -30 c-27 -31 -34 -51
-15 -39 7 4 10 1 7 -7 -3 -8 -10 -14 -16 -14 -6 0 -16 -5 -23 -12 -9 -9 -7
-11 7 -9 17 3 125 126 110 126 -3 0 -20 -18 -37 -40z"/>
<path d="M2855 1070 c3 -6 13 -10 21 -10 8 0 13 -4 10 -8 -3 -5 10 -24 29 -42
19 -18 32 -36 30 -39 -2 -4 5 -7 16 -7 28 0 24 7 -28 57 -44 42 -93 73 -78 49z"/>
<path d="M1820 1055 c-7 -9 -11 -17 -9 -20 3 -2 10 5 17 15 14 24 10 26 -8 5z"/>
<path d="M1847 1057 c-2 -6 -5 -16 -6 -22 -1 -5 -8 -20 -16 -32 -8 -12 -12
-30 -8 -39 4 -10 2 -15 -4 -11 -5 3 -10 1 -10 -6 0 -7 -4 -21 -8 -32 -11 -27
-3 -18 25 29 13 22 18 36 11 31 -9 -5 -12 -3 -9 6 3 8 10 13 16 12 6 -2 16 6
22 17 6 11 7 20 3 19 -22 -4 -25 2 -8 14 11 9 14 16 8 20 -6 4 -13 1 -16 -6z"/>
<path d="M1918 1058 c-4 -10 0 -18 11 -21 12 -3 17 2 19 17 1 15 -1 17 -7 7
-7 -11 -9 -11 -13 0 -3 10 -6 9 -10 -3z"/>
<path d="M2624 1059 c-4 -7 -3 -10 3 -6 10 6 26 -16 28 -38 0 -5 5 -11 10 -13
6 -2 19 -11 29 -20 14 -13 -37 62 -59 86 -2 2 -6 -2 -11 -9z"/>
<path d="M1966 1045 c-9 -26 -7 -32 5 -12 6 10 9 21 6 23 -2 3 -7 -2 -11 -11z"/>
<path d="M2101 1034 c0 -11 3 -14 6 -6 3 7 2 16 -1 19 -3 4 -6 -2 -5 -13z"/>
<path d="M2395 1020 c6 -26 4 -29 -12 -25 -10 3 -2 -2 17 -11 19 -9 48 -23 63
-31 16 -8 31 -12 34 -9 4 3 12 1 20 -5 18 -15 16 -5 -6 39 -10 20 -16 44 -13
52 3 11 2 12 -8 4 -9 -9 -9 -17 -1 -32 6 -11 11 -28 11 -38 0 -16 -1 -16 -20
1 -11 10 -20 25 -20 34 0 9 -5 23 -10 31 -7 11 -8 6 -4 -17 5 -27 3 -31 -12
-29 -11 2 -21 15 -26 34 -11 41 -22 42 -13 2z"/>
<path d="M2776 1028 c25 -20 66 -36 49 -20 -4 4 -10 7 -14 7 -4 0 -15 8 -25
18 -10 9 -22 17 -28 17 -6 0 2 -10 18 -22z"/>
<path d="M1495 1004 c-22 -18 -33 -34 -26 -34 10 0 2 -14 -20 -37 l-34 -38 37
34 c20 19 36 39 35 45 -1 6 3 10 9 9 15 -3 58 43 47 50 -4 3 -26 -10 -48 -29z
m45 23 c0 -2 -10 -12 -22 -23 l-23 -19 19 23 c18 21 26 27 26 19z"/>
<path d="M1591 1019 c-13 -11 -22 -22 -19 -24 2 -3 15 6 28 20 28 30 24 32 -9
4z"/>
<path d="M1903 1024 c3 -3 -4 -23 -17 -43 -44 -70 -107 -196 -88 -174 13 14
23 19 31 12 8 -6 8 -6 1 3 -14 16 -13 31 2 22 6 -4 8 -3 4 4 -8 13 34 103 46
96 4 -3 8 1 8 8 0 8 7 23 16 34 14 18 15 18 8 -6 -3 -14 -3 -22 1 -18 16 15
13 68 -3 68 -9 0 -13 -3 -9 -6z"/>
<path d="M2310 1014 c0 -6 -17 -14 -38 -18 -22 -3 -50 -14 -63 -25 -29 -23
-122 -33 -114 -13 3 8 0 12 -7 9 -7 -2 -12 -10 -10 -16 1 -6 -1 -10 -5 -9 -5
1 -33 -6 -63 -16 -58 -20 -127 -62 -150 -93 -12 -15 -10 -14 10 2 63 52 66 53
40 10 -115 -193 -131 -230 -155 -357 l-14 -73 1 90 c0 50 4 97 9 106 6 11 4
21 -5 29 -12 9 -13 7 -9 -8 3 -11 -17 -65 -47 -128 -29 -60 -59 -127 -68 -149
-8 -22 -21 -49 -29 -60 -17 -26 -17 -36 2 -28 9 3 14 10 12 16 -2 7 18 54 43
107 26 52 53 112 59 133 7 20 14 37 16 37 2 0 3 -29 4 -63 0 -83 15 -147 51
-222 32 -66 122 -166 173 -191 l32 -15 -25 20 c-14 11 -28 21 -32 21 -5 0 -8
7 -8 15 0 8 -5 15 -11 15 -19 0 -41 30 -36 50 3 11 1 18 -4 14 -9 -5 -13 10
-9 31 1 6 -4 5 -11 -2 -9 -9 -16 -7 -30 12 -21 26 -25 40 -7 29 7 -4 8 -3 4 5
-4 6 -11 9 -16 6 -15 -9 -30 65 -30 146 0 126 26 191 167 427 17 28 34 41 74
54 49 17 51 17 36 0 -31 -35 -50 -174 -45 -339 3 -85 1 -156 -4 -159 -7 -5 -9
0 -12 33 -1 15 -20 17 -22 3 -1 -5 -3 -12 -4 -15 -2 -5 -6 -19 -9 -32 0 -3
-11 2 -23 13 -20 16 -20 15 2 -10 22 -26 23 -28 5 -22 -16 6 -17 5 -8 -5 10
-10 18 -8 38 11 14 13 25 20 25 15 0 -5 5 -4 12 3 10 10 18 -10 41 -90 16 -57
30 -113 31 -125 0 -11 4 -19 7 -17 3 2 15 -15 25 -38 19 -43 76 -108 95 -108
5 0 -2 12 -16 28 -42 44 -83 139 -114 260 -15 62 -31 116 -35 120 -4 4 -5 -7
-2 -23 5 -22 4 -25 -2 -10 -11 24 -26 142 -18 134 4 -3 10 -26 15 -50 l9 -44
1 39 c1 29 4 37 16 32 9 -3 15 0 15 10 0 12 -4 13 -21 3 l-21 -11 5 144 c4
134 22 237 44 259 5 5 29 12 55 15 44 6 46 6 41 -18 -7 -36 18 -86 85 -175
136 -178 234 -356 268 -483 22 -84 39 -102 30 -34 -15 119 -116 324 -252 509
-82 112 -110 169 -95 194 9 14 179 -28 242 -59 81 -42 172 -116 162 -133 -3
-6 -1 -7 5 -3 6 3 22 -8 36 -26 14 -18 26 -29 26 -24 0 5 -11 24 -25 41 -13
18 -21 36 -17 40 4 5 2 5 -4 2 -7 -4 -18 1 -25 10 -55 66 -228 151 -344 168
l-49 8 23 18 c15 13 41 19 75 20 28 1 42 4 31 6 -11 3 -23 10 -27 17 -6 8 -8
8 -8 0z m-107 -69 c-3 -9 -8 -14 -10 -11 -3 3 -2 9 2 15 9 16 15 13 8 -4z
m-223 -524 c0 -6 -4 -12 -8 -15 -5 -3 -9 1 -9 9 0 8 4 15 9 15 4 0 8 -4 8 -9z"/>
<path d="M2626 1007 c3 -10 9 -15 12 -12 3 3 0 11 -7 18 -10 9 -11 8 -5 -6z"/>
<path d="M2769 1005 c6 -11 25 -36 42 -55 17 -19 26 -26 20 -15 -6 11 -25 36
-42 55 -17 19 -26 26 -20 15z"/>
<path d="M2720 1002 c0 -5 3 -12 7 -16 4 -4 8 -21 8 -39 2 -32 43 -108 67
-123 6 -4 2 6 -10 23 -24 33 -28 48 -12 38 6 -3 10 -1 10 6 0 8 5 8 18 -2 16
-13 16 -13 -1 7 -20 25 -48 28 -40 5 5 -12 3 -13 -6 -5 -7 6 -14 26 -16 43 -4
30 -3 31 12 19 9 -7 6 2 -7 20 -25 33 -30 38 -30 24z"/>
<path d="M1505 954 c-27 -25 -36 -37 -20 -26 28 19 84 72 74 72 -2 0 -26 -21
-54 -46z"/>
<path d="M2856 991 c-3 -5 2 -15 12 -22 15 -12 16 -12 5 2 -7 9 -10 19 -6 22
3 4 4 7 0 7 -3 0 -8 -4 -11 -9z"/>
<path d="M3098 947 c12 -13 19 -27 15 -32 -5 -4 -2 -5 5 -1 11 6 8 13 -9 32
-12 13 -25 24 -27 24 -3 0 4 -10 16 -23z"/>
<path d="M2654 949 c-4 -8 -3 -9 4 -5 11 7 36 -27 26 -36 -3 -3 2 -8 11 -11
14 -6 14 -4 0 23 -18 35 -31 44 -41 29z"/>
<path d="M1319 933 c-13 -16 -12 -17 4 -4 16 13 21 21 13 21 -2 0 -10 -8 -17
-17z"/>
<path d="M1752 943 c1 -4 -6 -24 -15 -43 -15 -29 -15 -32 -2 -15 28 34 36 53
25 60 -6 4 -9 3 -8 -2z"/>
<path d="M1930 938 c0 -6 -10 -23 -22 -37 l-23 -25 32 23 c20 13 30 27 26 36
-6 18 -13 19 -13 3z"/>
<path d="M2630 947 c0 -15 31 -69 37 -63 3 3 -4 20 -16 38 -11 18 -21 29 -21
25z"/>
<path d="M3000 906 c25 -27 50 -54 55 -60 6 -6 27 -24 48 -39 20 -16 35 -33
31 -38 -3 -5 -2 -9 3 -7 9 2 89 -68 171 -149 28 -29 52 -49 52 -44 0 5 -7 14
-15 21 -21 18 -19 35 3 19 9 -7 -10 15 -42 49 -33 34 -62 59 -65 57 -3 -3 -21
10 -40 29 -20 20 -40 36 -46 36 -10 1 -43 30 -145 124 l-55 51 45 -49z m196
-168 l29 -33 -32 29 c-31 28 -38 36 -30 36 2 0 16 -15 33 -32z m129 -117 c-7
-6 -85 70 -85 83 0 6 20 -10 45 -34 24 -24 42 -46 40 -49z"/>
<path d="M1364 918 l-19 -23 23 19 c21 18 27 26 19 26 -2 0 -12 -10 -23 -22z"/>
<path d="M1607 920 c-27 -39 -177 -189 -181 -181 -3 4 26 41 65 83 66 73 94
115 46 70 -13 -12 -26 -20 -29 -17 -2 3 -13 -5 -24 -17 l-19 -23 23 19 c41 36
21 1 -38 -64 -33 -37 -55 -69 -50 -74 5 -5 -3 -19 -18 -32 -24 -21 -25 -23 -8
-24 11 0 17 2 15 4 -2 3 47 58 109 123 103 107 141 153 128 153 -3 0 -11 -9
-19 -20z m-183 -201 c-3 -5 -10 -7 -15 -3 -5 3 -7 10 -3 15 3 5 10 7 15 3 5
-3 7 -10 3 -15z"/>
<path d="M1656 925 c-4 -13 -2 -16 9 -11 19 7 20 -8 1 -23 -11 -9 -15 -9 -18
1 -3 8 -7 6 -11 -6 -4 -10 -3 -15 3 -11 14 9 12 -8 -2 -24 -10 -11 -10 -12 -1
-7 7 4 27 28 45 54 17 26 25 41 17 35 -11 -9 -19 -9 -26 -2 -7 7 -12 5 -17 -6z"/>
<path d="M2530 900 c19 -18 35 -37 35 -43 1 -7 6 -11 12 -10 7 2 22 -12 34
-30 13 -17 27 -35 32 -38 5 -4 6 -12 3 -18 -4 -6 -3 -11 3 -11 14 0 43 -58 36
-71 -4 -5 -2 -16 4 -23 6 -7 12 -28 13 -47 2 -19 7 -37 12 -40 14 -11 11 -86
-5 -105 -9 -11 -9 -15 -1 -10 8 5 12 0 12 -14 0 -12 -4 -19 -9 -16 -5 4 -7 -2
-4 -13 8 -31 -40 -150 -69 -171 -4 -3 -12 -18 -17 -33 -6 -16 -15 -25 -21 -22
-5 3 -10 0 -10 -7 0 -12 -67 -77 -104 -100 -6 -5 -7 -8 -1 -8 30 0 142 103
185 170 99 156 96 375 -8 536 -40 60 -102 123 -144 144 -16 8 -13 2 12 -20z"/>
<path d="M2915 910 c21 -24 26 -25 19 -6 -3 8 -13 17 -22 21 -13 5 -13 2 3
-15z"/>
<path d="M897 899 c-5 -17 -3 -18 11 -7 9 7 18 13 20 14 2 1 -4 4 -12 7 -8 3
-16 -2 -19 -14z"/>
<path d="M1069 903 c-13 -16 -12 -17 4 -4 9 7 17 15 17 17 0 8 -8 3 -21 -13z"/>
<path d="M3026 912 c5 -5 38 -35 74 -67 l65 -59 -65 67 c-35 37 -69 67 -74 67
-6 0 -6 -3 0 -8z"/>
<path d="M1227 892 c-10 -10 -17 -23 -17 -28 1 -5 9 1 19 13 10 12 22 19 26
15 5 -4 5 -1 1 6 -9 16 -10 15 -29 -6z"/>
<path d="M2855 901 c-3 -5 -2 -12 3 -15 5 -3 9 1 9 9 0 17 -3 19 -12 6z"/>
<path d="M960 890 c-9 -6 -10 -10 -3 -10 6 0 15 5 18 10 8 12 4 12 -15 0z"/>
<path d="M2272 886 c7 -8 17 -12 22 -9 4 3 2 9 -5 14 -22 13 -31 11 -17 -5z"/>
<path d="M1747 871 c-8 -9 -17 -23 -21 -31 -4 -8 2 -3 14 13 12 15 26 25 30
22 5 -3 11 -2 14 3 9 16 -24 9 -37 -7z"/>
<path d="M1866 873 c-6 -14 -5 -15 5 -6 7 7 10 15 7 18 -3 3 -9 -2 -12 -12z"/>
<path d="M2125 880 c-3 -5 -2 -18 4 -27 7 -14 9 -12 8 10 -2 30 -3 31 -12 17z"/>
<path d="M1279 863 c-13 -16 -12 -17 4 -4 9 7 17 15 17 17 0 8 -8 3 -21 -13z"/>
<path d="M1455 870 c-4 -6 -11 -7 -17 -4 -6 4 -8 2 -4 -4 3 -5 -6 -25 -21 -44
l-27 -33 33 30 c18 17 37 38 42 48 10 18 5 24 -6 7z"/>
<path d="M2345 870 c3 -4 15 -6 28 -3 20 5 20 4 -8 -28 l-30 -33 36 29 c20 17
34 32 32 34 -7 9 -63 9 -58 1z"/>
<path d="M2739 827 c16 -29 36 -63 43 -77 25 -47 68 -110 75 -110 3 0 3 3 0 7
-4 3 1 12 11 20 9 7 13 12 7 11 -16 -3 -69 52 -98 103 -30 50 -33 64 -14 53 7
-5 6 1 -4 16 -8 13 -23 24 -32 26 -15 2 -12 -7 12 -49z m11 22 c0 -6 -4 -7
-10 -4 -5 3 -10 11 -10 16 0 6 5 7 10 4 6 -3 10 -11 10 -16z"/>
<path d="M3135 860 c10 -11 20 -20 23 -20 3 0 -3 9 -13 20 -10 11 -20 20 -23
20 -3 0 3 -9 13 -20z"/>
<path d="M3635 870 c3 -5 8 -10 11 -10 2 0 4 5 4 10 0 6 -5 10 -11 10 -5 0 -7
-4 -4 -10z"/>
<path d="M2810 850 c6 -11 13 -20 16 -20 2 0 0 9 -6 20 -6 11 -13 20 -16 20
-2 0 0 -9 6 -20z"/>
<path d="M2846 848 c14 -24 34 -30 34 -11 0 4 -3 4 -6 0 -4 -3 -15 4 -26 16
l-19 22 17 -27z"/>
<path d="M3275 850 c10 -11 20 -20 23 -20 3 0 -3 9 -13 20 -10 11 -20 20 -23
20 -3 0 3 -9 13 -20z"/>
<path d="M3410 866 c0 -2 8 -10 18 -17 15 -13 16 -12 3 4 -13 16 -21 21 -21
13z"/>
<path d="M1314 761 c-54 -55 -103 -97 -108 -93 -5 3 -6 -1 -1 -7 5 -9 24 3 64
43 31 30 61 56 66 56 6 0 10 4 10 9 0 5 17 26 38 46 21 20 36 39 34 41 -2 2
-48 -41 -103 -95z"/>
<path d="M1664 788 c-27 -40 -54 -73 -61 -73 -6 0 -15 -4 -20 -9 -5 -5 -3 -6
5 -2 18 11 15 0 -14 -44 -28 -42 -41 -52 -30 -24 5 14 4 15 -9 4 -17 -14 -21
-35 -5 -25 6 3 10 3 10 -2 0 -13 -37 -65 -46 -65 -5 0 -15 -4 -21 -10 -9 -7
-13 -7 -13 0 0 14 26 33 34 25 4 -4 4 0 1 9 -6 14 -12 11 -37 -18 -16 -18 -34
-32 -38 -29 -4 3 -14 -3 -21 -13 -13 -15 -12 -16 4 -3 23 18 21 5 -5 -32 -18
-26 -19 -29 -4 -17 11 8 21 13 23 12 3 -2 8 0 11 4 4 4 1 4 -5 0 -19 -11 -15
6 8 33 11 13 22 21 26 18 3 -4 12 -2 20 4 9 8 13 8 13 1 0 -11 -19 -27 -32
-27 -3 0 -10 -4 -15 -9 -5 -5 -3 -6 5 -2 20 12 13 -9 -11 -32 -38 -36 -85 -22
-55 16 12 15 11 16 -4 4 -9 -7 -16 -22 -15 -33 1 -14 9 -19 34 -19 29 0 38 8
100 98 37 53 72 100 78 104 5 4 6 8 2 8 -4 0 11 25 34 55 23 30 46 52 52 48 6
-3 7 -1 3 6 -4 6 -1 23 8 36 9 14 23 36 32 50 9 14 14 25 12 25 -2 0 -27 -33
-54 -72z"/>
<path d="M2270 850 c0 -5 5 -10 11 -10 5 0 7 5 4 10 -3 6 -8 10 -11 10 -2 0
-4 -4 -4 -10z"/>
<path d="M2420 854 c0 -6 7 -19 15 -30 8 -10 14 -14 14 -9 0 6 -6 19 -14 29
-8 11 -15 15 -15 10z"/>
<path d="M2995 840 c10 -11 20 -20 23 -20 3 0 -3 9 -13 20 -10 11 -20 20 -23
20 -3 0 3 -9 13 -20z"/>
<path d="M1299 833 c-13 -16 -12 -17 4 -4 16 13 21 21 13 21 -2 0 -10 -8 -17
-17z"/>
<path d="M2310 830 c6 -11 13 -20 16 -20 2 0 0 9 -6 20 -6 11 -13 20 -16 20
-2 0 0 -9 6 -20z"/>
<path d="M2690 830 c6 -11 13 -20 16 -20 2 0 0 9 -6 20 -6 11 -13 20 -16 20
-2 0 0 -9 6 -20z"/>
<path d="M3173 835 c0 -8 4 -12 10 -8 5 3 25 -10 45 -28 37 -34 37 -34 -3 9
-42 45 -52 50 -52 27z"/>
<path d="M724 824 c-18 -14 -18 -15 4 -4 12 6 22 13 22 15 0 8 -5 6 -26 -11z"/>
<path d="M1308 795 c-26 -25 -44 -45 -39 -45 4 0 27 20 51 45 57 58 49 58 -12
0z"/>
<path d="M1605 830 c-4 -6 -11 -7 -17 -4 -7 5 -8 2 -3 -5 5 -9 -15 -36 -56
-79 -35 -36 -57 -61 -48 -54 9 6 19 10 22 7 4 -3 5 -3 3 0 -5 8 64 80 75 78 5
-2 8 0 7 5 -5 13 28 52 37 44 5 -4 5 -1 1 6 -9 15 -13 15 -21 2z"/>
<path d="M1656 828 c3 -5 10 -6 15 -3 13 9 11 12 -6 12 -8 0 -12 -4 -9 -9z"/>
<path d="M2382 814 c-7 -14 -17 -22 -23 -18 -8 4 -9 -1 -4 -17 6 -24 6 -24
-12 -4 -10 11 -17 18 -16 16 2 -2 -2 -10 -8 -17 -7 -8 -6 -14 2 -20 8 -4 9 -3
5 4 -10 17 3 15 20 -2 9 -10 11 -17 4 -21 -7 -5 -5 -16 6 -33 10 -15 24 -38
31 -52 11 -21 13 -22 13 -6 0 17 15 15 15 -2 0 -4 4 -13 8 -19 5 -8 3 -13 -4
-13 -6 0 0 -9 14 -20 15 -12 24 -28 22 -38 -2 -13 3 -18 21 -18 16 0 20 3 14
11 -6 7 -5 16 2 23 7 7 8 12 4 12 -5 0 -3 6 3 14 9 11 6 20 -15 43 -14 15 -31
27 -36 25 -6 -2 -8 6 -6 16 4 15 1 18 -13 15 -11 -3 -21 1 -25 11 -3 9 -10 14
-14 11 -9 -6 -23 12 -26 33 -3 17 15 15 22 -3 4 -8 10 -12 15 -9 10 6 7 40 -6
51 -4 5 -5 3 -1 -4 8 -14 -10 -27 -19 -13 -3 5 2 21 11 35 9 14 15 28 12 30
-3 3 -10 -6 -16 -21z m13 -124 c17 2 45 -33 49 -62 1 -3 4 -10 8 -13 4 -4 5 5
2 21 l-5 29 24 -29 c21 -26 23 -32 11 -55 -7 -13 -10 -29 -7 -34 3 -6 1 -7 -6
-3 -6 4 -9 11 -6 15 2 5 -4 16 -15 26 -11 10 -17 21 -15 26 3 4 1 10 -5 14 -6
4 -8 10 -6 13 2 4 -5 19 -16 32 -17 21 -19 22 -14 5 6 -20 6 -20 -10 0 -8 11
-20 29 -25 40 -8 17 -7 16 10 -3 11 -13 23 -23 26 -22z"/>
<path d="M2463 618 c1 -7 -4 -12 -12 -10 -12 3 -12 0 -1 -13 10 -12 16 -13 26
-4 11 9 11 15 3 25 -14 17 -20 18 -16 2z"/>
<path d="M3314 827 c-4 -6 -4 -9 1 -5 4 4 27 -9 52 -29 24 -20 45 -34 47 -32
2 2 -18 21 -45 41 -34 27 -50 34 -55 25z"/>
<path d="M1033 820 c-13 -5 -23 -11 -23 -14 0 -8 30 0 42 12 14 14 11 14 -19
2z"/>
<path d="M2100 815 c-7 -9 -10 -18 -6 -22 3 -3 6 -1 6 6 0 7 4 10 8 7 5 -3 9
1 9 9 0 19 -2 19 -17 0z"/>
<path d="M2460 826 c0 -2 8 -10 18 -17 15 -13 16 -12 3 4 -13 16 -21 21 -21
13z"/>
<path d="M2920 826 c0 -2 8 -10 18 -17 15 -13 16 -12 3 4 -13 16 -21 21 -21
13z"/>
<path d="M850 799 c-17 -13 -18 -17 -5 -10 33 17 51 31 40 31 -5 0 -21 -10
-35 -21z"/>
<path d="M2174 806 c1 -8 5 -18 8 -22 4 -3 5 1 4 10 -1 8 -5 18 -8 22 -4 3 -5
-1 -4 -10z"/>
<path d="M2837 809 c7 -7 15 -10 18 -7 3 3 -2 9 -12 12 -14 6 -15 5 -6 -5z"/>
<path d="M2904 787 c16 -20 30 -37 33 -37 7 0 -36 58 -49 66 -7 4 1 -9 16 -29z"/>
<path d="M3053 803 c24 -28 21 -40 -5 -17 -12 10 -1 -8 24 -41 25 -33 56 -69
69 -80 13 -11 2 5 -24 36 -64 76 -59 85 10 19 54 -51 45 -35 -19 35 -15 17
-27 35 -28 40 0 6 -3 10 -7 10 -5 0 -15 4 -23 9 -10 7 -10 3 3 -11z"/>
<path d="M3259 798 c14 -16 21 -28 16 -28 -5 0 6 -15 23 -33 18 -18 29 -37 25
-42 -5 -4 -2 -5 5 -1 11 6 10 12 -4 27 -9 10 -12 19 -6 19 6 0 14 -4 17 -10 3
-5 11 -10 17 -10 5 0 0 9 -13 19 -17 14 -26 16 -31 8 -7 -11 -12 -3 -10 14 1
3 -13 19 -31 35 -32 29 -32 29 -8 2z"/>
<path d="M916 801 c-4 -5 -2 -12 3 -15 5 -4 12 -2 15 3 4 5 2 12 -3 15 -5 4
-12 2 -15 -3z"/>
<path d="M1243 784 l-28 -25 33 22 c17 13 32 24 32 26 0 8 -11 1 -37 -23z"/>
<path d="M1632 783 c-26 -38 -34 -53 -29 -53 2 0 16 18 31 40 29 45 28 56 -2
13z"/>
<path d="M1936 793 c-6 -14 -5 -15 5 -6 7 7 10 15 7 18 -3 3 -9 -2 -12 -12z"/>
<path d="M2129 794 c-15 -19 -22 -51 -11 -58 4 -2 8 7 8 21 1 13 10 31 20 38
11 8 14 15 8 15 -6 0 -18 -7 -25 -16z"/>
<path d="M2423 788 c9 -15 14 -33 12 -41 -3 -7 4 -22 16 -33 l23 -19 -16 24
c-9 13 -14 29 -11 37 2 7 -5 23 -18 36 l-23 23 17 -27z"/>
<path d="M2696 780 c22 -45 28 -52 19 -20 -4 14 -14 32 -22 40 -10 11 -9 5 3
-20z"/>
<path d="M2804 798 c-4 -7 -4 -10 1 -6 4 4 15 2 24 -5 14 -11 14 -10 2 6 -16
20 -18 21 -27 5z"/>
<path d="M2465 780 c10 -11 20 -20 23 -20 3 0 -3 9 -13 20 -10 11 -20 20 -23
20 -3 0 3 -9 13 -20z"/>
<path d="M1519 773 c-13 -16 -12 -17 4 -4 16 13 21 21 13 21 -2 0 -10 -8 -17
-17z"/>
<path d="M2730 786 c0 -11 30 -66 36 -66 2 0 -3 15 -12 33 -19 36 -24 44 -24
33z"/>
<path d="M2860 781 c0 -6 4 -13 10 -16 6 -3 7 1 4 9 -7 18 -14 21 -14 7z"/>
<path d="M2984 748 c21 -26 42 -46 46 -43 5 3 26 -15 47 -39 21 -24 41 -43 45
-42 9 1 58 -46 58 -57 0 -5 -8 -3 -17 4 -16 13 -17 12 -4 -3 7 -10 17 -16 21
-13 4 3 28 -19 53 -48 25 -30 53 -54 61 -54 8 0 13 4 10 9 -3 5 -9 6 -14 3 -4
-3 -40 33 -79 80 -40 47 -77 84 -83 82 -6 -1 -13 4 -16 12 -3 9 0 11 9 6 8 -5
11 -4 6 1 -5 5 -14 9 -20 9 -7 1 -11 7 -9 14 1 7 -2 10 -7 7 -9 -6 -29 12 -30
29 -1 6 -5 10 -10 10 -5 0 -18 11 -30 25 -11 14 -20 21 -21 16 0 -5 -12 1 -27
15 -18 16 -15 9 11 -23z m36 -23 c14 -19 14 -19 -2 -6 -10 7 -18 18 -18 24 0
6 1 8 3 6 1 -2 9 -13 17 -24z"/>
<path d="M1955 772 c-5 -4 -16 -14 -22 -23 -10 -12 -10 -16 0 -16 7 0 18 11
24 24 12 25 12 26 -2 15z"/>
<path d="M2533 768 c3 -9 -1 -22 -9 -28 -13 -11 -18 -7 -15 12 2 13 -27 -3
-33 -18 -3 -8 -2 -13 3 -9 12 7 41 -4 41 -16 0 -4 -7 -6 -15 -3 -8 4 -15 1
-15 -7 0 -7 3 -9 7 -6 3 4 17 -3 30 -15 13 -12 23 -18 23 -13 0 4 -8 14 -17
21 -17 13 -17 14 0 8 9 -3 17 -2 17 4 0 6 -5 12 -12 14 -7 3 -9 12 -5 22 4 10
12 14 19 10 8 -5 8 -1 -2 12 -22 29 -24 30 -17 12z"/>
<path d="M2825 756 c10 -14 19 -26 22 -26 7 0 -17 39 -28 46 -6 3 -3 -5 6 -20z"/>
<path d="M1179 763 c-1 -5 -1 -11 0 -15 0 -5 -3 -8 -9 -8 -5 0 -10 -5 -10 -12
0 -9 3 -9 12 0 11 11 20 42 12 42 -2 0 -5 -3 -5 -7z"/>
<path d="M2145 761 c-3 -6 -1 -11 6 -11 7 0 2 -11 -11 -25 -12 -13 -28 -22
-34 -18 -6 3 -8 3 -4 -2 10 -10 -11 -37 -23 -29 -17 10 -9 -5 12 -25 17 -16
19 -23 9 -41 -16 -31 -20 -59 -9 -66 6 -4 6 -11 -2 -20 -13 -15 3 -44 25 -44
6 0 3 6 -6 13 -19 15 -9 40 11 28 7 -5 12 -11 12 -15 -1 -3 -1 -7 0 -8 9 -29
1 -54 -25 -80 -23 -23 -25 -28 -9 -20 12 7 24 8 27 3 3 -5 -1 -12 -10 -15 -9
-3 -14 -12 -11 -20 3 -7 2 -17 -3 -22 -5 -5 2 -10 15 -10 15 -1 22 2 18 9 -3
6 -1 7 5 3 17 -10 3 -36 -16 -29 -14 4 -14 3 -3 -5 8 -6 20 -8 28 -5 7 3 16
-4 20 -15 5 -12 11 -21 16 -21 4 -1 7 -3 7 -6 0 -3 0 -10 0 -16 0 -8 -6 -7
-17 2 -10 8 -14 9 -10 2 4 -7 -2 -18 -15 -27 -12 -9 -18 -16 -14 -16 5 0 18 7
28 17 21 19 24 6 4 -19 -7 -10 -17 -14 -22 -10 -5 4 -1 -3 9 -14 14 -17 15
-23 5 -27 -7 -3 -3 -4 9 -4 12 1 21 4 20 7 -2 10 34 85 50 102 9 10 13 19 10
19 -4 1 -11 3 -17 4 -5 1 -13 3 -17 4 -4 0 -2 6 4 12 8 8 18 6 35 -5 14 -9 28
-13 33 -9 4 5 6 1 3 -7 -3 -8 -10 -15 -17 -15 -12 0 -27 -22 -55 -84 -13 -27
-13 -31 -1 -21 11 9 14 8 14 -7 1 -39 5 -50 17 -50 10 0 10 5 2 21 -14 26 -21
79 -10 72 5 -3 8 3 8 12 -1 9 3 17 9 17 5 0 8 -11 7 -25 -2 -22 -1 -23 9 -7 6
10 8 24 5 32 -3 8 3 24 13 37 18 22 18 23 -5 41 -13 10 -21 23 -18 29 4 7 2 8
-4 4 -8 -5 -12 1 -12 14 0 29 19 62 31 54 6 -4 4 -13 -6 -24 -16 -17 -16 -18
2 -16 29 5 36 -4 18 -24 -11 -13 -13 -20 -5 -25 6 -4 14 -4 17 -1 4 3 1 6 -6
6 -7 0 -9 5 -6 10 11 17 36 -10 30 -31 -3 -9 -2 -20 4 -23 5 -3 7 -15 4 -25
-3 -10 -1 -21 4 -24 10 -6 10 40 0 50 -10 10 -8 25 2 18 5 -3 18 6 29 20 12
15 23 21 27 15 3 -5 3 -10 -1 -10 -3 0 -1 -6 5 -14 9 -10 7 -19 -10 -37 l-20
-24 5 30 c5 24 4 27 -4 12 -6 -9 -8 -26 -5 -37 6 -18 7 -18 24 -1 23 23 33 49
20 56 -11 7 -2 25 12 25 6 0 7 -4 4 -10 -10 -16 1 -12 15 6 11 12 11 15 1 12
-8 -2 -15 5 -16 15 -4 22 -15 36 -15 19 0 -7 -4 -12 -10 -12 -5 0 -8 10 -6 23
3 12 5 24 5 27 1 3 5 0 9 -7 6 -9 11 -7 20 7 10 16 9 18 -10 15 -44 -9 -107
55 -87 87 8 12 13 4 10 -15 -1 -5 3 -6 7 -3 5 3 18 -4 28 -16 19 -21 19 -21
-1 -15 -20 7 -20 7 -1 -8 14 -11 23 -12 33 -4 10 9 13 8 13 -1 0 -8 3 -10 7
-7 3 4 -3 17 -15 30 -19 20 -22 26 -22 43 0 4 -6 1 -14 -5 -9 -7 -17 -8 -20
-3 -3 6 1 13 10 16 13 5 10 12 -14 42 -18 21 -29 45 -27 56 3 15 1 17 -9 9
-13 -11 -26 -5 -26 11 0 5 5 6 12 2 7 -4 8 -3 4 5 -4 6 -12 8 -18 5 -6 -4 -23
6 -37 22 -14 16 -23 25 -18 20 12 -16 8 -38 -5 -30 -8 4 -9 3 -5 -2 5 -5 16
-9 25 -9 9 0 17 -8 17 -17 0 -10 6 -23 14 -30 10 -10 12 -10 7 0 -4 6 -3 12 2
12 16 0 21 -13 12 -31 -7 -12 -6 -20 1 -24 6 -4 8 -13 5 -21 -3 -7 -1 -16 5
-20 6 -3 8 -12 5 -19 -2 -7 1 -18 7 -24 8 -8 8 -11 0 -11 -7 0 -15 5 -18 10
-4 6 -10 8 -14 5 -12 -7 -44 32 -36 45 3 5 11 8 16 4 5 -3 7 -9 5 -13 -3 -4 1
-8 9 -8 12 0 12 5 1 31 -7 17 -14 36 -14 41 -1 6 -6 11 -12 11 -5 1 -14 2 -20
3 -5 0 -10 6 -10 12 0 5 4 8 8 5 5 -3 9 1 9 9 0 10 -4 12 -12 5 -9 -8 -16 -2
-25 21 -12 28 -15 30 -26 15 -6 -9 -9 -27 -6 -39 5 -21 4 -21 -16 3 -19 23
-20 26 -5 38 12 8 13 12 4 12 -10 0 -9 6 3 25 15 22 15 28 2 46 -9 13 -16 16
-21 10z m11 -50 c-10 -11 -15 -24 -12 -30 4 -5 1 -13 -4 -16 -8 -5 -7 -12 3
-23 24 -29 28 -40 16 -48 -7 -4 -9 -3 -5 4 7 11 -12 11 -32 -1 -8 -6 -9 -14
-2 -26 5 -10 6 -21 3 -25 -3 -3 -1 -6 6 -6 8 0 10 8 7 23 l-6 22 12 -23 c17
-34 -3 -48 -33 -22 -13 12 -18 19 -11 15 6 -3 12 -1 12 4 0 6 -5 11 -10 11
-12 0 6 40 22 51 5 3 -1 14 -12 24 l-21 19 38 38 c37 38 62 45 29 9z m41 -57
c-12 -12 50 -77 66 -68 7 4 9 4 5 -1 -4 -4 -3 -17 3 -28 7 -13 7 -17 1 -13 -6
3 -13 2 -17 -4 -10 -15 -25 -2 -18 16 5 13 8 13 15 2 8 -11 9 -11 6 0 -2 8 -8
13 -13 13 -6 0 -13 7 -18 14 -4 8 -16 12 -26 10 -15 -3 -18 2 -15 28 3 40 3
37 11 37 3 0 4 -3 0 -6z m-9 -69 c17 1 33 -1 33 -4 1 -3 3 -16 4 -29 2 -23 52
-83 64 -79 11 3 81 -47 81 -57 0 -5 -10 -1 -22 10 -13 10 -17 12 -11 4 8 -9 9
-17 3 -25 -7 -9 -6 -16 4 -24 8 -7 12 -19 9 -27 -3 -8 0 -14 7 -14 6 0 9 4 5
9 -3 5 -1 12 4 15 5 4 13 1 16 -5 4 -5 13 -8 21 -5 8 3 11 0 7 -10 -4 -10 -9
-12 -18 -4 -9 8 -17 3 -30 -16 -16 -25 -17 -25 -30 -7 -7 10 -14 23 -15 28 -3
19 -22 35 -33 28 -6 -3 -7 -1 -3 6 4 6 13 8 19 4 7 -3 3 3 -7 15 -18 21 -20
21 -38 6 -25 -23 -23 -63 5 -92 l22 -25 -22 12 c-13 6 -23 17 -23 24 0 6 -10
2 -21 -10 -22 -22 -18 -48 6 -39 8 3 3 -11 -11 -31 -13 -20 -24 -42 -24 -49 0
-16 -17 -27 -24 -16 -3 5 6 26 20 46 26 37 26 38 7 59 -11 12 -27 34 -36 49
-10 16 -22 27 -28 25 -7 -1 -14 4 -16 11 -3 7 1 13 8 11 35 -4 40 2 19 19 -21
17 -21 19 -6 35 9 9 16 20 15 24 -3 17 14 52 22 47 5 -3 6 -11 2 -17 -8 -12
-13 -33 -15 -54 -1 -7 -6 -9 -12 -6 -6 4 -5 -1 3 -10 7 -9 17 -14 22 -11 16 9
10 -19 -8 -39 -10 -11 -13 -17 -6 -14 7 4 15 -5 22 -23 11 -34 22 -41 14 -10
-3 12 0 20 7 20 7 0 10 -7 6 -15 -8 -23 2 -18 15 8 6 12 8 19 4 15 -5 -4 -14
-3 -22 3 -10 9 -13 8 -13 -2 0 -12 -2 -12 -9 0 -6 9 -5 21 2 32 11 18 12 18
19 -2 8 -21 28 -18 28 4 0 7 -4 6 -10 -3 -8 -13 -10 -13 -10 1 0 9 7 19 15 23
8 3 15 9 14 13 -3 19 2 25 14 14 10 -8 14 -7 14 2 0 18 -35 19 -68 1 -27 -13
-43 -4 -19 11 8 5 8 11 0 20 -8 9 -8 15 0 20 5 3 10 0 10 -7 0 -8 4 -6 11 4 7
12 6 24 -1 38 -12 23 -22 27 -14 5 4 -8 2 -15 -3 -15 -6 0 -17 18 -26 41 -11
27 -20 38 -28 33 -8 -4 -9 -3 -5 5 5 7 12 9 19 3 7 -5 27 -8 45 -7z m162 -29
c14 -16 19 -26 13 -22 -7 4 -13 3 -13 -3 0 -5 -8 -8 -17 -6 -10 1 -17 9 -15
18 1 8 -2 18 -7 22 -6 3 -7 13 -4 21 3 8 9 12 12 7 3 -4 17 -21 31 -37z m-196
-50 c-3 -9 -10 -13 -16 -10 -5 3 -4 12 3 20 15 18 22 13 13 -10z m233 -3 c-4
-3 0 -14 9 -24 12 -13 12 -19 3 -25 -7 -4 -10 -3 -6 3 4 6 0 16 -8 23 -14 11
-12 30 2 30 4 0 3 -3 0 -7z m-167 -83 c-6 -12 -16 -17 -26 -13 -14 5 -12 8 7
19 31 17 31 17 19 -6z m167 -20 c-2 -25 -22 -33 -37 -14 -7 8 -10 15 -6 15 3
1 10 2 15 3 5 0 13 4 17 9 11 11 13 9 11 -13z"/>
<path d="M2121 666 c-9 -11 -9 -16 1 -22 7 -4 10 -4 6 1 -4 4 -3 14 3 22 6 7
9 13 6 13 -2 0 -10 -6 -16 -14z"/>
<path d="M2166 558 c3 -5 11 -7 17 -5 7 2 18 -3 25 -12 12 -14 12 -14 4 3 -5
11 -19 20 -30 21 -12 1 -19 -2 -16 -7z"/>
<path d="M2222 516 c4 -5 2 -18 -4 -30 -6 -11 -7 -18 -3 -14 4 4 14 0 23 -8
12 -13 16 -13 23 -2 7 11 9 11 9 -1 0 -8 6 -11 18 -7 16 6 16 5 -1 -8 -13 -10
-14 -15 -5 -23 22 -17 45 -26 26 -10 -19 15 -25 33 -9 22 17 -10 21 12 6 25
-8 7 -15 9 -15 4 0 -4 -17 8 -37 27 -21 18 -35 30 -31 25z m33 -36 c3 -5 2
-10 -4 -10 -5 0 -13 5 -16 10 -3 6 -2 10 4 10 5 0 13 -4 16 -10z"/>
<path d="M2239 403 c-13 -16 -12 -17 4 -4 16 13 21 21 13 21 -2 0 -10 -8 -17
-17z"/>
<path d="M2320 346 c0 -2 8 -10 18 -17 15 -13 16 -12 3 4 -13 16 -21 21 -21
13z"/>
<path d="M2320 565 c6 -8 9 -19 5 -24 -4 -7 0 -8 10 -5 14 6 14 8 -1 25 -20
22 -32 26 -14 4z"/>
<path d="M3245 752 c11 -13 29 -28 40 -34 21 -11 18 -8 -30 32 -29 24 -29 24
-10 2z"/>
<path d="M1060 719 l-45 -41 42 32 c38 28 60 50 51 50 -2 0 -24 -18 -48 -41z"/>
<path d="M2188 749 c6 -9 9 -19 5 -22 -3 -4 -3 -7 1 -7 4 0 15 8 24 17 15 15
15 16 1 11 -9 -4 -23 -1 -30 5 -11 10 -11 9 -1 -4z"/>
<path d="M1730 739 c0 -5 5 -7 10 -4 6 3 10 8 10 11 0 2 -4 4 -10 4 -5 0 -10
-5 -10 -11z"/>
<path d="M1974 736 c1 -8 5 -18 8 -22 4 -3 5 1 4 10 -1 8 -5 18 -8 22 -4 3 -5
-1 -4 -10z"/>
<path d="M2067 739 c9 -9 9 -18 2 -33 -10 -20 -10 -20 5 -2 20 25 20 32 -1 41
-14 5 -15 4 -6 -6z"/>
<path d="M2884 734 c19 -24 21 -38 4 -27 -14 8 9 -31 48 -84 27 -35 30 -48 12
-37 -9 5 -9 2 1 -9 15 -18 26 -23 16 -7 -3 6 -1 10 5 10 6 0 -8 25 -31 55 -52
69 -45 83 10 18 22 -26 50 -59 61 -73 12 -14 8 -4 -9 22 -17 26 -54 71 -82
100 -29 29 -44 44 -35 32z"/>
<path d="M3827 739 c7 -7 15 -10 18 -7 3 3 -2 9 -12 12 -14 6 -15 5 -6 -5z"/>
<path d="M1118 713 c-14 -16 -53 -48 -87 -73 -61 -45 -83 -67 -36 -36 14 9 31
14 37 10 6 -4 8 -3 5 4 -4 5 15 27 43 47 27 20 50 41 50 46 0 6 4 8 8 5 5 -3
9 1 9 9 0 19 1 20 -29 -12z"/>
<path d="M1355 720 c-10 -11 -22 -17 -28 -13 -5 3 -8 2 -5 -3 7 -10 -17 -35
-26 -28 -3 2 -4 1 -2 -2 3 -3 -6 -18 -19 -32 -13 -15 -44 -52 -69 -82 -26 -30
-50 -54 -54 -53 -13 3 -32 -19 -26 -29 4 -5 -11 -29 -32 -51 -71 -76 -98 -107
-92 -107 6 0 155 165 213 236 22 27 69 79 104 117 35 37 62 67 59 67 -3 0 -13
-9 -23 -20z"/>
<path d="M2970 703 c37 -50 46 -57 55 -43 4 6 2 9 -4 8 -6 -2 -27 15 -47 37
l-36 40 32 -42z"/>
<path d="M1690 710 c-6 -11 -8 -20 -6 -20 3 0 10 9 16 20 6 11 8 20 6 20 -3 0
-10 -9 -16 -20z"/>
<path d="M2410 721 c0 -5 5 -13 10 -16 6 -3 10 -2 10 4 0 5 -4 13 -10 16 -5 3
-10 2 -10 -4z"/>
<path d="M2565 720 c-4 -6 -3 -16 3 -22 13 -13 23 4 13 21 -7 10 -10 10 -16 1z"/>
<path d="M3508 709 c34 -22 43 -35 16 -25 -8 3 -12 2 -9 -4 10 -16 -7 -12 -29
7 -15 13 -14 10 3 -10 17 -19 27 -24 32 -15 6 9 12 8 26 -3 16 -13 17 -13 4 4
-8 10 -9 17 -3 17 6 0 13 -4 16 -9 8 -12 66 -20 66 -9 0 4 -12 8 -26 8 -14 0
-45 14 -69 30 -24 17 -47 30 -52 30 -4 0 7 -10 25 -21z"/>
<path d="M3580 726 c0 -3 9 -10 20 -16 11 -6 20 -8 20 -6 0 3 -9 10 -20 16
-11 6 -20 8 -20 6z"/>
<path d="M1429 693 l-24 -28 28 24 c25 23 32 31 24 31 -2 0 -14 -12 -28 -27z"/>
<path d="M1529 703 c-13 -16 -12 -17 4 -4 16 13 21 21 13 21 -2 0 -10 -8 -17
-17z"/>
<path d="M2740 716 c0 -11 60 -116 66 -116 5 0 -18 47 -47 94 -10 17 -19 27
-19 22z"/>
<path d="M704 694 c-18 -14 -18 -15 4 -4 12 6 22 13 22 15 0 8 -5 6 -26 -11z"/>
<path d="M1152 680 c-18 -17 -29 -30 -24 -30 5 0 21 14 37 30 37 38 30 38 -13
0z"/>
<path d="M1554 699 c-3 -6 -2 -15 3 -20 5 -5 9 -1 9 11 0 23 -2 24 -12 9z"/>
<path d="M2180 706 c0 -2 7 -7 16 -10 8 -3 12 -2 9 4 -6 10 -25 14 -25 6z"/>
<path d="M2256 695 c4 -8 11 -15 16 -15 6 0 5 6 -2 15 -7 8 -14 15 -16 15 -2
0 -1 -7 2 -15z"/>
<path d="M2610 706 c0 -2 8 -10 18 -17 15 -13 16 -12 3 4 -13 16 -21 21 -21
13z"/>
<path d="M2770 703 c0 -12 28 -38 34 -32 2 2 -5 13 -15 23 -11 11 -19 15 -19
9z"/>
<path d="M1959 683 c-13 -16 -12 -17 4 -4 16 13 21 21 13 21 -2 0 -10 -8 -17
-17z"/>
<path d="M3370 673 c13 -18 26 -30 29 -28 3 3 -8 18 -23 33 l-29 27 23 -32z"/>
<path d="M3400 696 c0 -2 8 -10 18 -17 15 -13 16 -12 3 4 -13 16 -21 21 -21
13z"/>
<path d="M845 679 c-4 -6 -5 -12 -2 -15 2 -3 7 2 10 11 7 17 1 20 -8 4z"/>
<path d="M934 668 l-19 -23 23 19 c21 18 27 26 19 26 -2 0 -12 -10 -23 -22z"/>
<path d="M1920 675 c0 -8 -4 -15 -10 -15 -5 0 -10 -5 -10 -11 0 -8 4 -9 13 0
8 6 16 8 20 5 3 -3 3 3 0 15 -6 24 -13 28 -13 6z"/>
<path d="M2460 686 c0 -2 8 -10 18 -17 15 -13 16 -12 3 4 -13 16 -21 21 -21
13z"/>
<path d="M1521 657 c-13 -21 -12 -21 5 -5 10 10 16 20 13 22 -3 3 -11 -5 -18
-17z"/>
<path d="M1660 660 c-6 -11 -8 -20 -6 -20 3 0 10 9 16 20 6 11 8 20 6 20 -3 0
-10 -9 -16 -20z"/>
<path d="M1855 670 c3 -5 8 -10 11 -10 2 0 4 5 4 10 0 6 -5 10 -11 10 -5 0 -7
-4 -4 -10z"/>
<path d="M2513 664 c9 -11 14 -24 10 -29 -5 -4 -2 -5 5 -1 7 4 12 1 12 -7 0
-8 7 -20 15 -27 12 -10 16 -9 21 5 4 9 1 22 -6 28 -10 10 -11 7 -5 -12 5 -16
4 -21 -4 -17 -6 4 -11 13 -11 20 0 7 -12 23 -27 37 -20 17 -23 18 -10 3z"/>
<path d="M2563 665 c0 -8 4 -12 9 -9 5 3 6 10 3 15 -9 13 -12 11 -12 -6z"/>
<path d="M2590 676 c0 -2 8 -10 18 -17 15 -13 16 -12 3 4 -13 16 -21 21 -21
13z"/>
<path d="M2960 676 c0 -2 8 -10 18 -17 15 -13 16 -12 3 4 -13 16 -21 21 -21
13z"/>
<path d="M1431 634 c-16 -18 -31 -31 -34 -28 -2 2 -25 -20 -51 -51 -26 -30
-51 -53 -55 -50 -8 4 -62 -47 -64 -61 -1 -5 -8 -7 -15 -6 -13 3 -31 -14 -52
-49 -6 -11 -5 -16 5 -16 7 0 11 6 8 13 -5 14 36 46 49 38 5 -3 -1 -14 -13 -25
-12 -10 -18 -19 -12 -19 5 0 17 8 26 18 14 16 17 22 17 38 0 4 6 1 14 -5 16
-13 23 -8 82 65 20 24 39 42 42 39 3 -2 -1 -11 -8 -20 -7 -8 -10 -15 -7 -15 3
0 16 15 28 33 13 17 16 26 8 20 -9 -7 -18 -11 -21 -8 -3 3 -27 -20 -53 -50
-26 -31 -50 -54 -52 -51 -8 8 98 127 107 121 5 -3 12 0 16 6 4 8 3 9 -4 5 -7
-4 -12 -2 -12 3 0 6 6 11 14 11 7 0 26 16 40 35 15 20 31 33 36 30 5 -3 11 -2
14 3 3 5 -2 9 -10 9 -8 0 -28 -15 -43 -33z m-156 -154 c-10 -11 -15 -26 -11
-36 5 -14 4 -15 -9 -4 -14 12 -13 16 6 37 27 28 40 31 14 3z"/>
<path d="M3455 650 c10 -11 20 -20 23 -20 3 0 -3 9 -13 20 -10 11 -20 20 -23
20 -3 0 3 -9 13 -20z"/>
<path d="M2044 635 c0 -13 3 -22 7 -19 8 4 6 30 -2 38 -3 3 -5 -5 -5 -19z"/>
<path d="M3205 640 c10 -11 20 -20 23 -20 3 0 -3 9 -13 20 -10 11 -20 20 -23
20 -3 0 3 -9 13 -20z"/>
<path d="M626 641 c-4 -5 3 -7 14 -4 23 6 26 13 6 13 -8 0 -17 -4 -20 -9z"/>
<path d="M1335 625 c-16 -13 -26 -24 -21 -25 5 0 -1 -12 -15 -27 -13 -16 0 -6
29 22 28 27 52 51 52 52 0 9 -19 0 -45 -22z"/>
<path d="M1940 635 c-7 -8 -17 -12 -23 -8 -6 4 -7 1 -3 -6 6 -9 13 -8 27 5 10
9 19 19 19 21 0 7 -8 2 -20 -12z"/>
<path d="M780 625 c-11 -13 -10 -14 4 -9 9 3 16 10 16 15 0 13 -6 11 -20 -6z"/>
<path d="M1294 618 l-19 -23 23 19 c21 18 27 26 19 26 -2 0 -12 -10 -23 -22z"/>
<path d="M1669 633 c-1 -5 -1 -12 0 -17 1 -4 -6 -20 -15 -35 -15 -23 -16 -24
-1 -13 9 8 19 22 22 33 4 11 11 16 18 12 7 -4 6 1 -2 10 -15 19 -20 21 -22 10z"/>
<path d="M2830 620 c6 -11 13 -20 16 -20 2 0 0 9 -6 20 -6 11 -13 20 -16 20
-2 0 0 -9 6 -20z"/>
<path d="M3580 624 c8 -8 23 -20 34 -26 15 -8 13 -3 -7 16 -31 28 -47 35 -27
10z"/>
<path d="M1090 589 c-25 -22 -71 -60 -103 -83 -40 -30 -53 -45 -43 -49 16 -6
40 16 29 27 -4 4 0 4 10 0 11 -4 17 -1 17 8 0 7 14 19 31 25 17 7 28 17 24 22
-3 6 -2 11 2 11 9 0 83 67 83 75 0 8 -3 6 -50 -36z"/>
<path d="M1577 611 c-10 -14 -10 -14 4 -4 9 7 18 10 21 7 3 -3 8 -1 12 4 9 16
-24 9 -37 -7z"/>
<path d="M1695 581 c-13 -27 -36 -62 -50 -77 -14 -15 -36 -51 -50 -80 -14 -29
-29 -55 -34 -59 -5 -3 -12 -18 -16 -34 -9 -41 -31 -58 -55 -43 -10 6 -21 8
-25 4 -4 -4 -12 -7 -18 -7 -5 0 -12 -5 -14 -11 -2 -7 19 -10 59 -10 35 1 63 5
63 11 0 6 -3 9 -7 8 -5 -2 -8 0 -8 5 0 11 78 151 111 201 34 49 82 141 74 141
-2 0 -16 -22 -30 -49z"/>
<path d="M1865 621 c-3 -5 -1 -12 5 -16 5 -3 10 1 10 9 0 18 -6 21 -15 7z"/>
<path d="M2876 622 c-3 -5 1 -9 9 -9 8 0 12 4 9 9 -3 4 -7 8 -9 8 -2 0 -6 -4
-9 -8z"/>
<path d="M3376 622 c-3 -5 3 -17 13 -27 17 -15 19 -15 17 -1 -3 22 -22 40 -30
28z"/>
<path d="M3523 614 c9 -11 14 -23 11 -26 -3 -3 -1 -8 4 -12 18 -11 8 25 -12
41 -21 18 -21 18 -3 -3z"/>
<path d="M645 610 c-3 -6 1 -7 9 -4 18 7 21 14 7 14 -6 0 -13 -4 -16 -10z"/>
<path d="M939 603 c-13 -16 -12 -17 4 -4 16 13 21 21 13 21 -2 0 -10 -8 -17
-17z"/>
<path d="M1142 590 c-18 -17 -28 -30 -22 -30 5 0 12 0 15 0 3 0 5 3 6 8 0 4
10 17 21 30 30 31 19 27 -20 -8z"/>
<path d="M3090 616 c0 -2 8 -10 18 -17 15 -13 16 -12 3 4 -13 16 -21 21 -21
13z"/>
<path d="M1344 588 l-19 -23 23 19 c21 18 27 26 19 26 -2 0 -12 -10 -23 -22z"/>
<path d="M1937 603 c-4 -3 -7 -15 -7 -26 0 -25 13 -14 15 13 2 22 1 23 -8 13z"/>
<path d="M2663 603 c4 -3 1 -13 -6 -22 -10 -14 -10 -14 4 -4 9 7 20 9 25 5 4
-4 2 1 -5 11 -7 9 -16 17 -19 17 -3 0 -2 -3 1 -7z"/>
<path d="M3054 585 c10 -16 27 -39 37 -51 21 -23 25 -39 8 -28 -21 12 21 -50
68 -101 l44 -50 -50 67 c-51 68 -61 85 -39 72 14 -9 5 6 -40 66 -42 56 -51 64
-28 25z"/>
<path d="M1419 583 c-13 -16 -12 -17 4 -4 16 13 21 21 13 21 -2 0 -10 -8 -17
-17z"/>
<path d="M1596 588 c3 -5 10 -6 15 -3 13 9 11 12 -6 12 -8 0 -12 -4 -9 -9z"/>
<path d="M2890 593 c0 -6 8 -17 18 -24 16 -13 16 -13 2 6 -8 11 -16 22 -17 24
-2 2 -3 0 -3 -6z"/>
<path d="M3085 580 c10 -11 20 -20 23 -20 3 0 -3 9 -13 20 -10 11 -20 20 -23
20 -3 0 3 -9 13 -20z"/>
<path d="M826 578 c3 -5 10 -6 15 -3 13 9 11 12 -6 12 -8 0 -12 -4 -9 -9z"/>
<path d="M943 578 c-11 -19 -13 -39 -1 -32 5 3 7 9 4 12 -3 3 -1 11 5 19 6 7
9 13 6 13 -3 0 -9 -6 -14 -12z"/>
<path d="M1806 582 c-3 -5 1 -9 9 -9 8 0 12 4 9 9 -3 4 -7 8 -9 8 -2 0 -6 -4
-9 -8z"/>
<path d="M1963 573 c0 -7 4 -13 8 -13 4 0 9 6 12 13 3 8 0 14 -7 14 -7 0 -13
-6 -13 -14z"/>
<path d="M2844 578 c-4 -7 -4 -10 1 -6 4 4 14 0 22 -10 13 -15 13 -15 3 6 -12
25 -16 27 -26 10z"/>
<path d="M3290 586 c0 -2 8 -10 18 -17 15 -13 16 -12 3 4 -13 16 -21 21 -21
13z"/>
<path d="M3560 586 c0 -2 8 -10 18 -17 15 -13 16 -12 3 4 -13 16 -21 21 -21
13z"/>
<path d="M1571 562 c-7 -14 -6 -19 4 -19 7 0 11 7 7 15 -4 11 -1 13 8 7 9 -5
11 -4 6 3 -10 16 -14 15 -25 -6z"/>
<path d="M2572 570 c2 -9 -3 -14 -12 -12 -11 3 -11 -1 3 -16 9 -10 14 -22 10
-26 -4 -4 0 -4 10 -1 18 8 18 38 -2 58 -10 9 -12 9 -9 -3z m15 -25 c0 -8 -4
-12 -9 -9 -5 3 -6 10 -3 15 9 13 12 11 12 -6z"/>
<path d="M3690 576 c0 -3 9 -10 20 -16 11 -6 20 -8 20 -6 0 3 -9 10 -20 16
-11 6 -20 8 -20 6z"/>
<path d="M1884 559 c-3 -6 -2 -15 4 -21 6 -6 12 -6 17 3 6 8 4 10 -5 4 -10 -6
-12 -4 -7 8 7 19 2 23 -9 6z"/>
<path d="M3145 550 c11 -14 30 -37 43 -52 13 -14 21 -31 18 -36 -6 -10 17 -35
26 -27 3 3 27 -23 54 -56 72 -90 77 -99 71 -106 -7 -6 -55 41 -132 129 -27 32
-51 55 -53 53 -3 -2 16 -27 42 -56 25 -28 43 -56 39 -62 -3 -5 -1 -7 4 -4 6 4
26 -10 44 -30 l33 -38 118 0 c65 0 118 4 118 9 0 5 6 4 13 -2 7 -5 30 -6 57
-2 l45 7 -50 2 c-41 1 -53 6 -73 29 l-23 27 17 -27 c23 -39 7 -35 -41 10 l-40
37 35 -39 35 -39 -27 7 c-18 4 -28 2 -28 -4 0 -6 -5 -8 -12 -4 -18 12 -88 11
-88 -1 -1 -5 -10 1 -21 15 -22 26 -47 57 -149 180 -60 73 -114 131 -75 80z"/>
<path d="M3460 542 c19 -17 39 -31 43 -32 5 0 6 -4 3 -8 -3 -5 11 -15 30 -24
18 -9 34 -14 34 -13 0 4 -111 88 -130 99 -8 4 1 -5 20 -22z"/>
<path d="M3650 566 c0 -2 6 -9 14 -15 11 -9 16 -9 22 0 4 8 3 9 -4 5 -7 -4
-12 -2 -12 3 0 6 -4 11 -10 11 -5 0 -10 -2 -10 -4z"/>
<path d="M806 490 c-48 -38 -83 -70 -77 -70 10 0 79 55 93 75 4 5 8 7 8 3 0
-3 14 7 31 23 17 16 36 26 42 22 6 -3 7 -1 3 5 -4 7 -8 12 -9 12 -1 0 -42 -31
-91 -70z"/>
<path d="M1309 543 c-13 -16 -12 -17 4 -4 16 13 21 21 13 21 -2 0 -10 -8 -17
-17z"/>
<path d="M2048 553 c7 -3 16 -2 19 1 4 3 -2 6 -13 5 -11 0 -14 -3 -6 -6z"/>
<path d="M3405 521 c22 -23 54 -52 70 -64 l30 -21 -20 23 c-11 13 -42 42 -70
64 l-50 41 40 -43z"/>
<path d="M745 523 c-19 -13 -35 -27 -35 -30 0 -4 5 -2 12 5 19 19 32 14 17 -5
-13 -16 -12 -17 3 -4 10 7 15 17 13 22 -5 8 21 27 38 27 16 0 17 9 2 9 -8 0
-31 -11 -50 -24z"/>
<path d="M1125 525 c-16 -14 -25 -25 -19 -25 6 0 21 11 34 25 30 32 24 31 -15
0z"/>
<path d="M1800 539 c0 -5 5 -7 10 -4 6 3 10 8 10 11 0 2 -4 4 -10 4 -5 0 -10
-5 -10 -11z"/>
<path d="M1918 532 c-16 -17 -16 -18 1 -18 9 0 18 8 18 18 2 21 2 21 -19 0z"/>
<path d="M1955 531 c2 -9 4 -23 5 -31 1 -11 3 -11 7 -2 2 6 10 10 16 6 7 -3 3
2 -7 10 -11 9 -14 16 -8 16 7 0 12 4 12 8 0 5 -6 9 -14 9 -7 0 -12 -7 -11 -16z"/>
<path d="M2930 533 c5 -12 15 -25 20 -28 6 -3 10 -14 10 -24 0 -10 8 -25 18
-32 14 -11 15 -11 5 1 -7 8 -13 21 -13 30 0 8 -12 29 -26 45 -17 21 -22 23
-14 8z"/>
<path d="M2980 546 c0 -2 8 -10 18 -17 15 -13 16 -12 3 4 -13 16 -21 21 -21
13z"/>
<path d="M3270 515 c19 -19 36 -35 39 -35 3 0 -10 16 -29 35 -19 19 -36 35
-39 35 -3 0 10 -16 29 -35z"/>
<path d="M2801 530 c0 -8 22 -62 49 -119 53 -110 55 -115 41 -107 -5 4 -7 -3
-4 -14 3 -11 10 -23 15 -26 6 -4 8 3 4 17 -6 24 -6 24 5 2 6 -12 20 -21 30
-20 24 2 25 13 1 19 -21 6 -96 144 -88 164 3 7 -5 26 -18 41 -13 16 -26 35
-29 43 -5 13 -5 13 -6 0z"/>
<path d="M2876 531 c-3 -5 1 -15 10 -22 16 -13 55 -83 51 -90 -2 -2 8 -15 21
-29 l25 -25 -17 33 c-9 18 -14 38 -10 44 4 6 3 8 -4 4 -6 -3 -20 11 -33 34
-13 22 -27 40 -31 40 -5 0 -6 5 -3 10 3 6 4 10 1 10 -3 0 -7 -4 -10 -9z"/>
<path d="M3120 536 c0 -2 8 -10 18 -17 15 -13 16 -12 3 4 -13 16 -21 21 -21
13z"/>
<path d="M3559 526 c13 -16 51 -41 51 -33 0 2 -15 14 -32 27 -21 15 -28 17
-19 6z"/>
<path d="M1559 513 c-13 -16 -12 -17 4 -4 16 13 21 21 13 21 -2 0 -10 -8 -17
-17z"/>
<path d="M1604 515 c-4 -8 -10 -12 -15 -9 -5 3 -9 2 -8 -3 3 -18 -1 -34 -9
-29 -4 2 -8 -4 -8 -15 0 -10 1 -19 2 -19 1 0 13 17 25 38 13 20 28 40 33 44 7
5 7 8 -2 8 -7 0 -15 -7 -18 -15z"/>
<path d="M1860 521 c0 -6 4 -13 10 -16 6 -3 7 1 4 9 -7 18 -14 21 -14 7z"/>
<path d="M2772 525 c16 -39 39 -85 43 -85 7 0 -14 50 -31 73 -9 12 -14 18 -12
12z"/>
<path d="M2985 504 c10 -17 26 -41 37 -55 l20 -24 -17 31 c-10 17 -26 41 -37
55 l-20 24 17 -31z"/>
<path d="M3089 460 c69 -100 89 -126 95 -120 4 5 -111 162 -136 185 -6 5 13
-24 41 -65z"/>
<path d="M3345 490 c21 -22 41 -40 44 -40 3 0 -13 18 -34 40 -21 22 -41 40
-44 40 -3 0 13 -18 34 -40z"/>
<path d="M3349 517 c8 -9 16 -15 19 -12 3 3 15 -3 26 -12 21 -18 21 -18 2 5
-11 12 -21 20 -24 17 -3 -3 -12 1 -21 8 -14 11 -14 10 -2 -6z"/>
<path d="M1179 485 c-18 -19 -38 -45 -46 -57 -10 -16 -7 -14 9 5 24 27 45 37
32 15 -4 -7 12 5 35 27 22 21 41 41 41 44 0 3 -16 -10 -35 -29 -38 -37 -49
-31 -13 7 12 13 19 23 15 23 -4 0 -21 -16 -38 -35z"/>
<path d="M2470 516 c0 -2 8 -10 18 -17 15 -13 16 -12 3 4 -13 16 -21 21 -21
13z"/>
<path d="M2890 445 c23 -44 47 -84 53 -90 5 -5 -9 26 -32 70 -23 44 -47 85
-53 90 -6 6 8 -26 32 -70z"/>
<path d="M3649 507 c8 -10 20 -16 27 -13 7 3 15 -2 17 -10 3 -9 4 -7 3 3 -1
10 -8 17 -15 15 -7 -1 -21 3 -30 10 -14 12 -15 11 -2 -5z"/>
<path d="M2586 493 c-6 -14 -5 -15 5 -6 7 7 10 15 7 18 -3 3 -9 -2 -12 -12z"/>
<path d="M2644 499 c-3 -6 -2 -15 4 -21 6 -6 12 -6 17 3 6 8 4 10 -5 4 -10 -6
-12 -4 -7 8 7 19 2 23 -9 6z"/>
<path d="M3030 480 c11 -16 26 -33 32 -36 7 -4 -1 9 -16 29 -34 44 -46 50 -16
7z"/>
<path d="M4134 496 c11 -9 24 -16 30 -16 12 0 7 5 -24 19 -24 11 -24 11 -6 -3z"/>
<path d="M2053 481 c0 -11 6 -19 12 -18 5 1 9 -5 8 -13 -2 -9 5 -16 17 -17 19
-2 19 -2 0 20 -11 11 -20 27 -20 34 0 7 -4 13 -9 13 -6 0 -9 -9 -8 -19z"/>
<path d="M3574 483 c11 -13 15 -23 11 -23 -4 0 0 -9 10 -20 10 -11 23 -20 29
-20 6 0 0 7 -12 16 -12 8 -20 19 -17 23 2 5 -5 17 -18 27 l-22 19 19 -22z"/>
<path d="M1069 470 c-13 -10 -20 -19 -16 -20 4 0 17 9 29 20 28 26 17 26 -13
0z"/>
<path d="M1339 473 c-13 -16 -12 -17 4 -4 16 13 21 21 13 21 -2 0 -10 -8 -17
-17z"/>
<path d="M1869 488 c-5 -19 -8 -50 -4 -46 7 7 15 48 9 48 -2 0 -4 -1 -5 -2z"/>
<path d="M2556 478 c5 -7 9 -16 9 -20 0 -3 4 -10 9 -15 5 -4 6 -3 3 4 -4 6 -3
13 3 15 6 2 1 9 -11 16 -17 11 -20 11 -13 0z"/>
<path d="M3740 486 c0 -2 14 -14 30 -26 17 -12 30 -19 30 -16 0 2 -13 14 -30
26 -16 12 -30 19 -30 16z"/>
<path d="M1502 439 c-12 -21 -21 -39 -18 -39 7 0 49 71 44 75 -2 2 -14 -14
-26 -36z"/>
<path d="M1935 471 c-3 -5 -2 -12 3 -15 5 -3 9 1 9 9 0 17 -3 19 -12 6z"/>
<path d="M2608 468 c10 -13 10 -17 0 -21 -9 -4 -9 -6 -1 -6 20 -2 24 16 5 30
-15 13 -16 12 -4 -3z"/>
<path d="M3626 472 c-3 -5 1 -9 9 -9 8 0 12 4 9 9 -3 4 -7 8 -9 8 -2 0 -6 -4
-9 -8z"/>
<path d="M3728 457 c12 -13 19 -27 15 -32 -5 -4 -3 -5 4 -1 7 4 25 -1 40 -10
23 -13 25 -14 9 0 -11 8 -32 27 -48 41 -35 31 -49 33 -20 2z"/>
<path d="M1465 444 c-9 -15 -12 -23 -6 -20 11 7 35 46 28 46 -3 0 -12 -12 -22
-26z"/>
<path d="M1900 460 c-9 -6 -10 -10 -3 -10 6 0 15 5 18 10 8 12 4 12 -15 0z"/>
<path d="M2105 460 c3 -5 8 -10 11 -10 2 0 4 5 4 10 0 6 -5 10 -11 10 -5 0 -7
-4 -4 -10z"/>
<path d="M3460 426 c25 -26 59 -57 75 -68 35 -24 23 -12 -60 63 l-60 53 45
-48z"/>
<path d="M3525 450 c10 -11 20 -20 23 -20 3 0 -3 9 -13 20 -10 11 -20 20 -23
20 -3 0 3 -9 13 -20z"/>
<path d="M845 451 c-3 -5 -2 -12 3 -15 5 -3 9 1 9 9 0 17 -3 19 -12 6z"/>
<path d="M885 432 c-16 -15 -45 -39 -63 -55 -19 -15 -30 -27 -25 -27 9 0 131
109 123 109 -3 1 -18 -11 -35 -27z"/>
<path d="M3325 451 c3 -5 -3 -12 -12 -15 -13 -3 -13 -4 3 -3 11 1 29 -5 40
-13 11 -9 9 -4 -5 13 -24 27 -38 36 -26 18z"/>
<path d="M2530 435 c-7 -9 -8 -15 -2 -15 5 0 12 7 16 15 3 8 4 15 2 15 -2 0
-9 -7 -16 -15z"/>
<path d="M740 403 c-25 -19 -54 -41 -65 -49 -15 -11 -17 -16 -7 -26 9 -9 15
-9 25 1 10 10 9 11 -5 6 -34 -13 -18 4 47 50 36 26 65 49 65 51 0 10 -18 0
-60 -33z"/>
<path d="M1326 408 l-17 -33 20 24 c18 20 27 41 18 41 -1 0 -11 -15 -21 -32z"/>
<path d="M1866 421 c-4 -5 -2 -12 4 -16 6 -4 7 -11 4 -17 -4 -6 -2 -8 4 -5 10
7 11 32 0 42 -3 4 -9 2 -12 -4z"/>
<path d="M2999 415 c5 -11 17 -29 26 -40 16 -20 16 -20 6 0 -5 11 -17 29 -26
40 -16 20 -16 20 -6 0z"/>
<path d="M3660 426 c0 -2 8 -10 18 -17 15 -13 16 -12 3 4 -13 16 -21 21 -21
13z"/>
<path d="M973 413 c9 -2 23 -2 30 0 6 3 -1 5 -18 5 -16 0 -22 -2 -12 -5z"/>
<path d="M2060 409 c0 -5 5 -7 10 -4 6 3 10 8 10 11 0 2 -4 4 -10 4 -5 0 -10
-5 -10 -11z"/>
<path d="M3050 401 c5 -11 15 -23 21 -27 6 -3 3 5 -6 20 -20 30 -30 35 -15 7z"/>
<path d="M3105 378 c50 -56 61 -67 44 -43 -37 53 -64 85 -72 85 -5 0 8 -19 28
-42z"/>
<path d="M1188 343 c-37 -37 -70 -64 -74 -60 -4 4 3 19 17 35 18 20 15 19 -12
-5 -19 -18 -41 -33 -49 -33 -11 0 -11 -3 -2 -12 8 -8 15 -8 27 2 8 7 15 8 15
3 0 -6 27 -9 63 -7 81 3 77 2 77 15 0 6 14 29 31 50 17 21 27 39 22 39 -5 0
-17 -14 -27 -30 -9 -17 -22 -27 -28 -24 -6 4 -8 2 -5 -3 11 -17 -22 -37 -56
-35 -17 2 -33 5 -36 8 -3 2 22 31 54 64 33 33 57 60 55 60 -3 0 -35 -30 -72
-67z"/>
<path d="M1362 344 c-23 -35 -49 -64 -58 -64 -16 0 -15 3 19 55 12 19 4 13
-21 -15 -23 -25 -41 -47 -42 -50 0 -3 16 -5 35 -5 31 0 38 5 56 40 12 22 30
53 41 68 11 16 19 30 17 32 -2 2 -23 -26 -47 -61z"/>
<path d="M1432 390 c-18 -29 -15 -38 4 -12 9 13 14 25 12 27 -2 2 -9 -5 -16
-15z"/>
<path d="M670 385 c-11 -13 -10 -14 4 -9 9 3 16 10 16 15 0 13 -6 11 -20 -6z"/>
<path d="M987 382 c-10 -10 -17 -22 -17 -27 0 -5 9 1 21 14 12 12 19 24 17 27
-3 2 -12 -4 -21 -14z"/>
<path d="M1095 389 c-4 -6 -5 -12 -2 -15 2 -3 7 2 10 11 7 17 1 20 -8 4z"/>
<path d="M1652 334 c-18 -35 -32 -66 -32 -68 0 -2 15 -3 34 -3 25 1 32 5 28
16 -3 9 -1 12 5 8 7 -5 9 0 6 13 -3 11 0 27 7 35 7 8 8 15 3 15 -5 0 -18 -19
-29 -42 -11 -23 -23 -37 -26 -32 -4 5 5 33 19 62 14 29 23 55 21 57 -2 3 -18
-25 -36 -61z"/>
<path d="M2443 379 c-1 -11 8 -24 20 -30 21 -9 21 -9 3 5 -10 8 -15 19 -12 25
4 5 3 12 -2 15 -4 2 -9 -4 -9 -15z"/>
<path d="M2751 395 c-1 -16 47 -130 53 -127 4 1 13 2 21 2 8 0 15 4 15 10 0 5
-7 7 -15 4 -11 -5 -23 11 -45 57 -16 35 -29 60 -29 54z"/>
<path d="M3010 347 c17 -32 28 -62 25 -67 -6 -10 22 -26 31 -18 2 3 -10 28
-28 56 -55 84 -61 90 -28 29z"/>
<path d="M3445 380 c10 -11 20 -20 23 -20 3 0 -3 9 -13 20 -10 11 -20 20 -23
20 -3 0 3 -9 13 -20z"/>
<path d="M3673 383 c9 -11 15 -22 12 -24 -2 -3 5 -5 15 -5 11 0 20 1 20 1 0 1
-15 12 -32 25 -27 19 -30 20 -15 3z"/>
<path d="M3765 347 c63 -58 63 -62 0 -70 -23 -3 -19 -5 15 -6 25 -2 60 -3 78
-4 17 -1 32 2 32 6 0 5 -15 7 -32 5 -25 -2 -33 1 -31 12 1 8 -26 37 -60 63
l-62 49 60 -55z"/>
<path d="M1464 378 c-4 -7 -14 -24 -22 -38 -14 -24 -13 -24 3 -5 20 24 37 55
31 55 -3 0 -8 -6 -12 -12z"/>
<path d="M1518 372 c4 -11 1 -13 -8 -7 -9 5 -11 4 -6 -3 10 -16 14 -15 25 6 7
14 6 19 -4 19 -7 0 -11 -7 -7 -15z"/>
<path d="M1796 377 c3 -10 9 -15 12 -12 3 3 0 11 -7 18 -10 9 -11 8 -5 -6z"/>
<path d="M1821 375 c0 -11 4 -27 9 -35 8 -12 11 -13 22 -2 11 11 10 13 -1 10
-8 -2 -17 8 -22 22 -6 20 -7 21 -8 5z"/>
<path d="M1967 370 c-9 -11 -25 -20 -34 -20 -15 0 -15 -2 -4 -9 11 -7 22 -2
38 15 21 23 28 34 20 34 -1 0 -10 -9 -20 -20z"/>
<path d="M3350 386 c0 -2 8 -10 18 -17 15 -13 16 -12 3 4 -13 16 -21 21 -21
13z"/>
<path d="M1885 370 c-11 -5 -17 -9 -13 -9 3 -1 13 -3 21 -6 8 -4 14 0 14 10 0
8 -1 15 -1 14 -1 0 -10 -4 -21 -9z"/>
<path d="M3870 376 c0 -3 9 -10 20 -16 11 -6 20 -8 20 -6 0 3 -9 10 -20 16
-11 6 -20 8 -20 6z"/>
<path d="M619 343 c-13 -16 -12 -17 4 -4 16 13 21 21 13 21 -2 0 -10 -8 -17
-17z"/>
<path d="M2746 334 c3 -22 0 -37 -11 -48 -9 -9 -15 -16 -13 -17 2 0 18 -2 35
-4 l33 -3 -19 36 c-10 20 -21 44 -24 52 -4 8 -4 1 -1 -16z"/>
<path d="M1388 318 c-38 -51 -40 -57 -21 -53 10 1 17 8 15 14 -1 7 7 26 18 42
29 40 18 37 -12 -3z"/>
<path d="M1984 337 c-4 -6 -4 -9 1 -5 4 4 14 3 22 -4 7 -6 15 -9 18 -7 2 3 -4
10 -15 17 -15 9 -21 9 -26 -1z"/>
<path d="M2836 325 c9 -40 23 -65 35 -65 5 0 0 19 -12 43 -28 54 -32 59 -23
22z"/>
<path d="M2860 341 c0 -6 4 -13 10 -16 6 -3 7 1 4 9 -7 18 -14 21 -14 7z"/>
<path d="M731 305 c-34 -27 -47 -32 -57 -24 -8 6 -11 15 -8 20 3 5 -2 6 -11 2
-13 -4 -14 -8 -4 -14 8 -5 5 -9 -12 -12 l-24 -4 25 1 c14 0 30 -2 35 -5 6 -3
26 -2 45 2 19 3 26 7 15 8 -17 1 -15 6 15 31 49 41 34 37 -19 -5z"/>
<path d="M1720 305 c-7 -20 -10 -39 -7 -42 3 -3 10 12 16 33 14 49 7 56 -9 9z"/>
<path d="M2980 330 c-9 -6 -10 -10 -3 -10 6 0 15 5 18 10 8 12 4 12 -15 0z"/>
<path d="M3239 318 c13 -15 28 -25 34 -21 6 3 7 1 3 -5 -12 -20 -33 -14 -56
16 l-22 27 16 -27 c16 -27 16 -28 -3 -28 -11 0 -23 5 -26 10 -4 6 -13 7 -24 1
-9 -5 -29 -8 -44 -7 -15 2 -30 -1 -33 -5 -3 -5 5 -10 18 -10 13 -1 35 -2 51
-3 15 -1 27 2 27 7 0 4 5 5 12 1 7 -4 35 -8 64 -9 l52 -1 -15 23 c-9 13 -18
21 -21 18 -3 -3 -17 5 -31 17 l-26 23 24 -27z"/>
<path d="M1069 313 c-13 -16 -12 -17 4 -4 9 7 17 15 17 17 0 8 -8 3 -21 -13z"/>
<path d="M1898 306 c3 -11 7 -15 10 -8 2 7 8 10 12 7 5 -3 12 0 16 6 4 8 3 9
-4 5 -7 -4 -12 -3 -12 2 0 5 -6 9 -14 9 -8 0 -11 -8 -8 -21z"/>
<path d="M1960 326 c0 -3 9 -10 20 -16 11 -6 20 -8 20 -6 0 3 -9 10 -20 16
-11 6 -20 8 -20 6z"/>
<path d="M3939 311 c13 -12 28 -21 34 -21 12 0 11 0 -28 24 l-30 17 24 -20z"/>
<path d="M974 303 c0 -9 -5 -18 -13 -21 -10 -3 -11 0 -5 9 6 12 5 12 -8 1 -9
-8 -25 -13 -35 -12 -37 4 -156 0 -151 -5 11 -12 281 -10 285 1 2 7 -9 10 -31
7 -28 -3 -34 0 -30 11 3 8 1 17 -4 20 -5 3 -9 -2 -8 -11z"/>
<path d="M2466 305 c-11 -8 -15 -15 -9 -15 6 0 16 7 23 15 16 19 11 19 -14 0z"/>
<path d="M1840 300 c0 -5 5 -10 11 -10 5 0 7 5 4 10 -3 6 -8 10 -11 10 -2 0
-4 -4 -4 -10z"/>
<path d="M1870 290 c0 -5 5 -10 10 -10 6 0 10 5 10 10 0 6 -4 10 -10 10 -5 0
-10 -4 -10 -10z"/>
<path d="M1940 290 c0 -5 9 -10 19 -10 11 0 21 -4 23 -9 2 -5 17 -12 33 -16
26 -5 23 -2 -15 19 -50 28 -60 31 -60 16z"/>
<path d="M2968 286 c5 -11 19 -20 31 -21 25 -2 27 8 4 26 -11 10 -14 10 -9 2
4 -7 3 -13 -1 -13 -5 0 -15 6 -22 13 -11 10 -12 9 -3 -7z"/>
<path d="M2116 281 c-3 -5 2 -15 12 -22 15 -12 16 -12 5 2 -7 9 -10 19 -6 22
3 4 4 7 0 7 -3 0 -8 -4 -11 -9z"/>
<path d="M2140 279 c0 -5 5 -7 10 -4 6 3 10 8 10 11 0 2 -4 4 -10 4 -5 0 -10
-5 -10 -11z"/>
<path d="M2435 279 c4 -10 2 -20 -4 -24 -6 -3 -11 -11 -11 -18 0 -6 7 -1 16
12 13 17 14 25 5 34 -9 9 -11 8 -6 -4z"/>
<path d="M3690 280 c0 -4 9 -10 20 -13 11 -3 20 -2 20 3 0 4 -9 10 -20 13 -11
3 -20 2 -20 -3z"/>
<path d="M3911 280 c-10 -5 -9 -8 2 -13 7 -3 19 -2 26 3 10 5 9 8 -2 13 -7 3
-19 2 -26 -3z"/>
<path d="M555 270 c-3 -6 1 -7 9 -4 18 7 21 14 7 14 -6 0 -13 -4 -16 -10z"/>
<path d="M1841 264 c0 -11 3 -14 6 -6 3 7 2 16 -1 19 -3 4 -6 -2 -5 -13z"/>
<path d="M3980 276 c0 -9 39 -13 51 -5 10 6 4 9 -18 9 -18 0 -33 -2 -33 -4z"/>
<path d="M1906 258 c3 -5 10 -6 15 -3 13 9 11 12 -6 12 -8 0 -12 -4 -9 -9z"/>
<path d="M1867 245 c3 -8 9 -12 14 -9 12 7 11 11 -5 17 -10 4 -13 1 -9 -8z"/>
<path d="M1948 253 c6 -2 9 -10 6 -15 -4 -7 -2 -8 4 -4 6 4 20 2 31 -4 15 -7
22 -7 27 2 4 7 4 10 -1 6 -4 -4 -20 -1 -36 7 -15 8 -32 15 -36 14 -4 0 -2 -3
5 -6z"/>
<path d="M2107 251 c6 -7 9 -20 6 -27 -3 -8 -3 -14 0 -14 14 0 14 30 -1 41
-14 11 -15 11 -5 0z"/>
<path d="M1020 213 l-35 -36 32 23 c18 13 34 29 37 37 7 18 5 17 -34 -24z"/>
<path d="M1069 214 c-20 -22 -26 -32 -14 -26 22 12 59 52 53 58 -3 2 -20 -13
-39 -32z"/>
<path d="M1597 213 l-17 -38 20 24 c11 13 20 29 20 37 0 22 -5 17 -23 -23z"/>
<path d="M2305 238 c5 -11 2 -18 -6 -18 -7 0 -10 -3 -6 -6 3 -3 -4 -22 -15
-42 -12 -22 -14 -31 -6 -24 8 6 18 9 22 5 4 -4 4 0 1 9 -4 9 1 28 11 43 13 20
14 29 5 38 -10 9 -11 8 -6 -5z"/>
<path d="M2396 235 c-9 -26 -7 -32 5 -12 6 10 9 21 6 23 -2 3 -7 -2 -11 -11z"/>
<path d="M2786 230 c3 -14 11 -32 16 -40 6 -10 7 -7 2 10 -3 14 -11 32 -16 40
-6 10 -7 7 -2 -10z"/>
<path d="M2817 233 c8 -23 33 -60 33 -50 0 11 -29 67 -35 67 -2 0 -2 -8 2 -17z"/>
<path d="M2881 220 c6 -16 15 -32 20 -35 4 -3 3 8 -2 25 -6 16 -15 32 -20 35
-4 3 -3 -8 2 -25z"/>
<path d="M3156 237 c3 -10 9 -15 12 -12 3 3 0 11 -7 18 -10 9 -11 8 -5 -6z"/>
<path d="M3320 239 c0 -9 11 -26 25 -39 14 -13 25 -21 25 -19 0 3 -11 20 -25
39 -14 19 -25 27 -25 19z"/>
<path d="M3360 240 c0 -5 5 -10 11 -10 5 0 7 5 4 10 -3 6 -8 10 -11 10 -2 0
-4 -4 -4 -10z"/>
<path d="M4031 247 c2 -1 13 -9 24 -17 19 -14 19 -14 6 3 -7 9 -18 17 -24 17
-6 0 -8 -1 -6 -3z"/>
<path d="M904 218 l-19 -23 23 19 c21 18 27 26 19 26 -2 0 -12 -10 -23 -22z"/>
<path d="M952 217 c-12 -13 -22 -27 -22 -33 0 -5 12 4 26 19 14 16 24 30 22
33 -3 2 -14 -6 -26 -19z"/>
<path d="M1285 229 c-11 -16 -1 -19 13 -3 7 8 8 14 3 14 -5 0 -13 -5 -16 -11z"/>
<path d="M2440 220 c-6 -11 -8 -20 -6 -20 3 0 10 9 16 20 6 11 8 20 6 20 -3 0
-10 -9 -16 -20z"/>
<path d="M3540 236 c0 -2 7 -9 15 -16 13 -11 14 -10 9 4 -5 14 -24 23 -24 12z"/>
<path d="M3580 237 c0 -2 15 -16 33 -33 l32 -29 -29 33 c-28 30 -36 37 -36 29z"/>
<path d="M3650 215 c13 -14 26 -25 28 -25 3 0 -5 11 -18 25 -13 14 -26 25 -28
25 -3 0 5 -11 18 -25z"/>
<path d="M2711 225 c1 -19 18 -51 18 -35 0 8 -4 22 -9 30 -5 8 -9 11 -9 5z"/>
<path d="M3080 221 c0 -5 5 -13 10 -16 6 -3 10 -2 10 4 0 5 -4 13 -10 16 -5 3
-10 2 -10 -4z"/>
<path d="M1430 200 c-6 -11 -8 -20 -6 -20 3 0 10 9 16 20 6 11 8 20 6 20 -3 0
-10 -9 -16 -20z"/>
<path d="M1777 201 c-4 -17 -3 -21 5 -13 5 5 8 16 6 23 -3 8 -7 3 -11 -10z"/>
<path d="M3392 204 c10 -10 20 -16 22 -13 3 3 -5 11 -17 18 -21 13 -21 12 -5
-5z"/>
<path d="M499 193 c-13 -16 -12 -17 4 -4 9 7 17 15 17 17 0 8 -8 3 -21 -13z"/>
<path d="M589 193 c-13 -16 -12 -17 4 -4 16 13 21 21 13 21 -2 0 -10 -8 -17
-17z"/>
<path d="M3240 206 c0 -2 8 -10 18 -17 15 -13 16 -12 3 4 -13 16 -21 21 -21
13z"/>
<path d="M2345 181 c-7 -23 -21 -28 -28 -8 -4 9 -6 9 -6 0 -2 -22 22 -26 37
-7 14 18 14 18 9 -3 -7 -31 -1 -29 17 7 8 17 10 30 5 30 -5 0 -9 -6 -9 -12 0
-10 -3 -9 -9 1 -7 11 -10 9 -16 -8z"/>
<path d="M1954 169 c-3 -6 -1 -16 5 -22 9 -9 10 -7 5 7 -6 16 -4 18 10 13 10
-4 15 -3 11 3 -8 13 -22 13 -31 -1z"/>
<path d="M2012 160 c7 -11 19 -22 28 -25 8 -4 4 5 -9 19 -29 31 -36 33 -19 6z"/>
<path d="M2040 170 c0 -5 5 -10 11 -10 5 0 7 5 4 10 -3 6 -8 10 -11 10 -2 0
-4 -4 -4 -10z"/>
<path d="M460 165 c0 -8 29 -12 39 -5 9 5 4 8 -13 8 -14 0 -26 -2 -26 -3z"/>
<path d="M520 166 c0 -9 30 -14 35 -6 4 6 -3 10 -14 10 -12 0 -21 -2 -21 -4z"/>
<path d="M588 163 c7 -3 16 -2 19 1 4 3 -2 6 -13 5 -11 0 -14 -3 -6 -6z"/>
<path d="M665 160 c27 -3 63 -3 80 1 20 5 3 7 -50 7 -72 -1 -75 -1 -30 -8z"/>
<path d="M780 164 c0 -2 10 -8 21 -15 13 -7 19 -7 15 -1 -4 7 11 10 41 9 37
-2 47 -6 45 -17 -3 -11 3 -9 20 5 13 11 25 21 28 23 2 2 -35 2 -83 1 -48 -1
-87 -3 -87 -5z"/>
<path d="M944 137 c-54 -62 -58 -72 -11 -28 50 48 91 65 80 33 -6 -15 -4 -15
15 2 12 11 22 21 22 23 0 1 -17 3 -38 3 -31 0 -44 -7 -68 -33z"/>
<path d="M1063 151 c1 -16 4 -17 22 -6 17 11 47 12 129 6 5 -1 2 -9 -5 -18
-13 -17 -13 -17 5 -3 10 8 35 15 55 16 20 1 36 3 36 4 0 1 21 3 48 4 26 0 47
0 47 -2 0 -2 -5 -13 -11 -25 -9 -21 -9 -21 5 -4 8 10 20 19 28 21 7 1 20 6 28
11 8 5 2 -12 -13 -38 -37 -63 -27 -60 12 2 l30 50 -209 0 c-198 1 -209 0 -207
-18z"/>
<path d="M1490 159 c0 -7 10 -9 26 -6 20 3 24 1 20 -12 -4 -11 -1 -10 10 4 16
19 16 19 9 -5 -4 -14 -19 -47 -32 -73 -13 -27 -23 -51 -20 -53 2 -2 14 19 27
46 13 28 30 56 37 61 7 6 11 15 8 19 -3 4 2 11 11 14 12 5 14 1 9 -17 -5 -20
-5 -20 9 3 8 14 17 23 19 20 3 -3 9 -2 13 3 4 4 -27 7 -69 7 -50 0 -77 -4 -77
-11z"/>
<path d="M1657 150 c5 -19 6 -19 19 -3 10 14 15 16 25 6 10 -10 10 -13 1 -13
-7 0 -12 -4 -12 -10 0 -18 18 -11 25 10 3 11 15 20 26 20 10 0 19 -1 19 -3 0
-2 -11 -37 -25 -77 -33 -96 -25 -102 10 -8 30 79 51 111 43 66 -3 -15 -1 -25
3 -22 5 3 9 11 9 19 0 7 7 16 16 19 13 5 15 1 10 -18 -3 -13 -9 -32 -13 -42
-4 -12 -3 -15 5 -10 7 4 12 17 12 29 0 18 2 20 11 7 8 -12 9 -10 5 10 -3 14
-6 28 -6 33 0 4 -42 7 -94 7 -90 0 -94 -1 -89 -20z"/>
<path d="M2380 150 c-6 -11 -8 -20 -6 -20 3 0 10 9 16 20 6 11 8 20 6 20 -3 0
-10 -9 -16 -20z"/>
<path d="M2637 163 c-4 -3 -7 -11 -7 -17 0 -6 5 -4 10 4 7 11 10 11 10 2 0 -7
5 -10 10 -7 6 3 10 10 10 16 0 10 -23 12 -33 2z"/>
<path d="M2680 159 c0 -5 5 -7 10 -4 6 3 10 1 10 -6 0 -8 5 -7 17 2 15 12 16
12 10 -4 -5 -12 -3 -16 5 -11 7 5 9 0 6 -14 -4 -12 -2 -20 3 -16 5 3 9 0 9 -7
0 -7 2 -10 5 -8 2 3 -1 22 -7 42 -10 31 -16 37 -40 37 -15 0 -28 -5 -28 -11z"/>
<path d="M2762 156 c9 -10 18 -11 31 -4 15 8 20 5 24 -11 3 -12 9 -21 13 -21
5 0 6 9 3 20 -8 31 13 23 27 -10 7 -16 17 -30 23 -30 7 0 7 4 -1 12 -16 16
-15 45 1 51 6 3 -21 6 -61 6 -62 1 -71 -1 -60 -13z"/>
<path d="M2907 158 c5 -7 20 -39 33 -71 12 -31 26 -60 31 -63 4 -2 -3 20 -16
51 -14 31 -25 64 -25 75 0 12 -7 20 -16 20 -12 0 -14 -4 -7 -12z"/>
<path d="M2940 159 c0 -6 4 -7 10 -4 5 3 25 -25 44 -62 19 -37 35 -64 36 -60
0 4 -11 30 -25 57 -14 27 -25 52 -25 55 0 12 24 4 36 -12 12 -17 12 -17 11 2
-2 17 5 19 63 20 42 0 71 -5 83 -14 16 -13 17 -13 11 2 -11 29 15 19 53 -20
33 -35 34 -35 14 -6 -30 44 -26 51 10 17 l32 -29 -18 32 -18 31 -159 0 c-97 0
-158 -3 -158 -9z"/>
<path d="M3290 140 c11 -16 26 -33 33 -36 7 -4 4 2 -5 13 -10 11 -18 25 -18
32 0 20 42 3 67 -27 13 -15 23 -22 23 -17 -1 6 -12 22 -25 38 -18 20 -33 27
-60 27 l-36 0 21 -30z"/>
<path d="M3412 118 c49 -57 63 -64 19 -9 -17 21 -31 41 -31 43 0 9 35 5 48 -5
9 -7 11 -6 6 6 -4 12 -17 16 -44 15 l-38 -1 40 -49z"/>
<path d="M3475 162 c11 -2 26 -9 33 -14 8 -7 12 -7 12 0 0 10 168 7 198 -3 6
-2 12 0 12 5 0 5 29 8 65 8 36 -1 68 1 71 5 3 3 -88 5 -203 5 -114 -1 -199 -3
-188 -6z"/>
<path d="M3898 163 c7 -3 16 -2 19 1 4 3 -2 6 -13 5 -11 0 -14 -3 -6 -6z"/>
<path d="M3948 163 c6 -2 18 -2 25 0 6 3 1 5 -13 5 -14 0 -19 -2 -12 -5z"/>
<path d="M3998 163 c6 -2 18 -2 25 0 6 3 1 5 -13 5 -14 0 -19 -2 -12 -5z"/>
<path d="M2400 139 c-7 -11 -10 -23 -7 -25 2 -2 9 7 15 21 14 30 7 33 -8 4z"/>
<path d="M2440 150 c-9 -6 -10 -10 -3 -10 6 0 15 5 18 10 8 12 4 12 -15 0z"/>
<path d="M2181 131 c-9 -6 -10 -11 -2 -15 6 -4 11 -2 11 4 0 6 5 8 12 4 7 -4
8 -3 4 4 -8 14 -7 14 -25 3z"/>
<path d="M2326 130 c5 -8 9 -18 9 -22 0 -3 3 -9 7 -13 3 -4 5 0 4 9 -1 9 -8
22 -16 29 -10 10 -11 9 -4 -3z"/>
<path d="M2790 124 c0 -8 5 -12 10 -9 6 4 8 11 5 16 -9 14 -15 11 -15 -7z"/>
<path d="M3060 120 c6 -11 13 -20 16 -20 2 0 0 9 -6 20 -6 11 -13 20 -16 20
-2 0 0 -9 6 -20z"/>
<path d="M2643 108 c1 -16 5 -28 9 -28 10 0 9 9 -2 35 -8 17 -8 16 -7 -7z"/>
<path d="M3460 127 c0 -2 14 -16 32 -33 l32 -29 -25 32 c-20 27 -39 41 -39 30z"/>
<path d="M1039 103 c-13 -16 -12 -17 4 -4 16 13 21 21 13 21 -2 0 -10 -8 -17
-17z"/>
<path d="M1866 105 c-3 -9 -6 -26 -5 -38 1 -16 4 -12 10 12 10 34 6 55 -5 26z"/>
<path d="M1179 93 c-13 -16 -12 -17 4 -4 16 13 21 21 13 21 -2 0 -10 -8 -17
-17z"/>
<path d="M1254 95 c-4 -8 -11 -12 -17 -8 -6 3 -7 1 -3 -5 10 -16 14 -15 26 8
6 11 8 20 5 20 -3 0 -8 -7 -11 -15z"/>
<path d="M1630 101 c0 -6 4 -13 10 -16 6 -3 7 1 4 9 -7 18 -14 21 -14 7z"/>
<path d="M2296 102 c-3 -5 1 -9 9 -9 8 0 12 4 9 9 -3 4 -7 8 -9 8 -2 0 -6 -4
-9 -8z"/>
<path d="M2836 97 c3 -10 9 -15 12 -12 3 3 0 11 -7 18 -10 9 -11 8 -5 -6z"/>
<path d="M2880 80 c0 -5 5 -10 11 -10 5 0 7 5 4 10 -3 6 -8 10 -11 10 -2 0 -4
-4 -4 -10z"/>
<path d="M1620 71 c0 -6 4 -13 10 -16 6 -3 7 1 4 9 -7 18 -14 21 -14 7z"/>
<path d="M2591 64 c0 -11 3 -14 6 -6 3 7 2 16 -1 19 -3 4 -6 -2 -5 -13z"/>
<path d="M1821 54 c0 -11 3 -14 6 -6 3 7 2 16 -1 19 -3 4 -6 -2 -5 -13z"/>
<path d="M2657 51 c-4 -17 -3 -21 5 -13 5 5 8 16 6 23 -3 8 -7 3 -11 -10z"/>
<path d="M1935 49 c-4 -6 -5 -12 -3 -14 7 -7 48 7 48 16 0 13 -37 11 -45 -2z"/>
<path d="M2500 40 c8 -5 20 -10 25 -10 6 0 3 5 -5 10 -8 5 -19 10 -25 10 -5 0
-3 -5 5 -10z"/>
<path d="M1880 25 c-11 -13 -10 -14 4 -9 9 3 16 10 16 15 0 13 -6 11 -20 -6z"/>
<path d="M2554 28 c3 -15 26 -23 26 -8 0 6 -4 9 -9 6 -5 -4 -12 -1 -14 4 -3 6
-4 5 -3 -2z"/>
<path d="M1842 14 c-7 -8 -8 -14 -3 -14 10 0 25 19 20 25 -2 1 -10 -3 -17 -11z"/>
<path d="M2671 14 c0 -11 3 -14 6 -6 3 7 2 16 -1 19 -3 4 -6 -2 -5 -13z"/>
</g>
</svg>
