<?xml version="1.0" standalone="no"?>
<!DOCTYPE svg PUBLIC "-//W3C//DTD SVG 20010904//EN"
 "http://www.w3.org/TR/2001/REC-SVG-20010904/DTD/svg10.dtd">
<svg version="1.0" xmlns="http://www.w3.org/2000/svg"
 width="300.000000pt" height="168.000000pt" viewBox="0 0 300.000000 168.000000"
 preserveAspectRatio="xMidYMid meet">
<metadata>
Created by potrace 1.10, written by Peter Selinger 2001-2011
</metadata>
<g transform="translate(0.000000,168.000000) scale(0.100000,-0.100000)"
fill="#000000" stroke="none">
<path d="M4 1295 c0 -212 2 -385 3 -385 5 0 143 271 143 282 -1 13 -59 -82
-82 -134 -7 -15 -18 -30 -25 -32 -6 -3 -2 12 9 32 63 110 90 152 98 147 10 -6
30 27 29 47 0 7 -5 2 -10 -11 -5 -13 -12 -21 -16 -18 -3 4 1 17 9 29 8 14 12
35 9 52 -5 26 -7 27 -20 13 -7 -9 -18 -14 -23 -11 -13 8 -45 -23 -70 -68 -12
-21 -25 -38 -29 -38 -13 0 -4 35 11 42 13 6 13 7 -1 7 -20 1 -20 72 1 79 9 3
11 -1 7 -11 -3 -9 -2 -19 3 -22 5 -3 7 -13 4 -23 -4 -12 1 -10 15 7 17 19 21
36 21 99 0 41 3 72 7 69 3 -4 12 -2 20 4 11 9 13 -2 13 -62 0 -68 1 -72 17
-57 9 10 20 45 25 80 4 34 12 66 16 70 10 10 2 198 -9 198 -5 0 -9 -37 -10
-82 0 -46 -4 -105 -9 -133 -6 -39 -8 -21 -9 83 0 80 -5 132 -11 132 -6 0 -10
-41 -10 -104 0 -80 -3 -106 -15 -116 -12 -10 -15 -10 -15 4 0 9 -3 16 -7 16
-5 0 -7 45 -5 100 3 95 2 100 -17 100 -17 0 -21 -6 -21 -34 0 -19 -3 -41 -6
-49 -4 -11 2 -17 18 -20 l23 -4 -23 -2 c-19 -1 -22 -6 -20 -33 1 -18 7 -36 13
-40 6 -5 5 -11 -4 -17 -11 -7 -7 -10 15 -14 26 -4 25 -4 -8 -6 l-36 -1 0 53
c0 132 -3 167 -11 167 -4 0 -8 -173 -7 -385z m45 117 c-5 -2 -9 -12 -9 -23 0
-13 7 -19 22 -19 27 0 21 -7 -11 -12 -22 -3 -24 0 -25 44 -1 43 0 45 15 30 9
-10 12 -18 8 -20z m71 -140 c0 -8 -50 -84 -60 -92 -4 -3 -10 -15 -14 -28 -4
-12 -11 -20 -16 -17 -12 8 -1 36 26 63 12 12 27 36 34 52 11 27 30 41 30 22z"/>
<path d="M113 1620 c0 -36 2 -50 4 -32 2 17 2 47 0 65 -2 17 -4 3 -4 -33z"/>
<path d="M211 1598 c-3 -91 -4 -131 -2 -148 1 -5 20 -10 44 -10 41 0 41 -1 17
-13 -14 -7 -27 -10 -30 -7 -3 3 -15 6 -26 6 -18 0 -23 -8 -27 -46 -3 -25 -1
-52 4 -60 4 -8 9 -12 9 -7 0 4 9 -2 20 -13 20 -20 29 -77 10 -65 -6 4 -7 12
-3 18 4 7 -1 5 -11 -3 -18 -14 -18 -13 -11 19 5 22 4 31 -3 27 -5 -3 -9 -21
-8 -38 2 -19 -7 -51 -20 -76 -17 -32 -22 -56 -20 -94 2 -43 1 -48 -10 -33 -9
13 -10 23 -3 36 5 11 6 19 2 19 -5 0 -14 -14 -20 -30 -9 -23 -8 -29 0 -24 7 4
2 -3 -10 -15 -13 -12 -23 -29 -23 -37 0 -9 -5 -12 -11 -8 -8 4 -9 -1 -4 -16 6
-17 4 -21 -6 -14 -10 6 -10 3 1 -11 13 -17 13 -18 -1 -13 -9 4 -20 -2 -27 -13
-14 -21 -3 -25 17 -6 11 10 12 8 6 -12 -6 -18 -4 -22 6 -16 11 6 11 5 2 -5
-10 -11 -15 -11 -28 0 -12 10 -18 10 -30 0 -13 -11 -15 -73 -15 -451 l0 -439
1500 0 1500 0 0 840 0 840 -1351 0 -1351 0 7 -78 c4 -42 11 -82 15 -87 5 -6 4
-17 -2 -25 -8 -12 -9 -12 -4 3 3 11 2 16 -4 12 -20 -13 -4 -44 30 -58 9 -3 3
-6 -13 -6 -18 -1 -26 3 -21 10 4 8 -3 10 -22 7 -16 -3 -23 -3 -16 -1 15 5 18
223 2 223 -5 0 -11 -44 -13 -97 l-3 -98 -2 98 c-1 60 -6 97 -13 97 -7 0 -9
-39 -7 -115 2 -63 0 -115 -4 -115 -4 0 -9 53 -11 118 -3 112 -3 113 -6 30z
m567 -75 c-10 -2 -28 -2 -40 0 -13 2 -5 4 17 4 22 1 32 -1 23 -4z m-265 -21
c-4 -8 0 -10 11 -6 9 3 14 10 11 14 -3 5 4 6 15 3 11 -3 20 -10 20 -16 0 -7 4
-7 12 1 14 14 42 16 34 3 -4 -5 2 -8 11 -6 50 10 102 12 97 4 -3 -5 2 -9 10
-9 9 0 16 5 16 10 0 6 5 10 11 10 5 0 7 -4 4 -10 -3 -5 -1 -10 6 -10 7 0 9 -3
5 -7 -4 -5 -13 -8 -19 -8 -7 0 -22 -19 -34 -43 -12 -24 -24 -38 -28 -32 -8 14
-62 13 -71 -2 -4 -6 -3 -8 4 -5 6 5 8 0 5 -12 -4 -16 -8 -17 -18 -8 -7 7 -10
17 -8 24 3 7 -3 10 -14 8 -18 -3 -20 -27 -2 -34 6 -1 2 -9 -8 -17 -17 -13 -17
-13 5 -14 12 0 31 9 42 20 16 16 25 18 39 11 10 -6 21 -7 25 -4 3 4 12 -2 20
-12 8 -12 20 -16 34 -13 19 5 41 -16 24 -24 -4 -2 -20 -18 -37 -37 -16 -19
-24 -31 -17 -27 18 11 15 1 -18 -57 -32 -57 -40 -84 -15 -51 8 10 15 14 15 9
0 -6 -5 -16 -11 -22 -7 -7 -8 -17 -3 -25 5 -7 9 -18 10 -25 3 -16 -23 -37 -30
-25 -3 6 1 15 9 22 12 10 13 16 4 27 -21 24 -19 67 3 90 16 17 21 36 22 87 1
71 -9 76 -20 9 -5 -31 -3 -43 5 -43 7 0 0 -18 -16 -39 -25 -36 -29 -37 -40
-21 -22 32 -1 171 23 148 3 -3 -2 -20 -11 -38 -25 -48 -13 -45 17 5 15 25 23
47 18 50 -6 4 -10 2 -10 -4 0 -6 -6 -8 -14 -5 -19 7 -66 -42 -66 -68 0 -32
-12 -14 -20 29 -7 42 -4 45 -38 -37 -10 -22 -11 -20 -11 23 -1 40 2 47 18 47
26 0 42 22 31 40 -8 13 -10 13 -10 1 0 -8 -3 -11 -6 -8 -4 4 -1 13 6 22 11 13
6 15 -36 16 -41 1 -44 2 -19 8 17 3 30 11 30 16 0 16 -41 17 -56 2 -20 -19
-61 -28 -76 -15 -10 8 -13 5 -13 -15 0 -14 -4 -29 -10 -32 -5 -3 -9 -23 -9
-43 1 -28 3 -31 6 -12 6 28 22 42 40 35 7 -2 15 0 18 5 4 6 2 10 -3 10 -9 0
-12 30 -3 31 3 0 14 2 24 4 22 4 22 -11 0 -19 -14 -6 -15 -9 -4 -15 7 -5 12
-11 12 -15 0 -3 2 -12 5 -21 3 -8 4 -20 1 -27 -3 -7 -6 -2 -7 12 -1 23 -2 24
-11 5 -8 -18 -9 -18 -5 4 4 18 2 21 -7 12 -9 -9 -9 -16 1 -31 13 -22 5 -83
-11 -73 -5 3 -7 0 -5 -8 3 -8 10 -13 16 -12 6 2 5 -9 -4 -25 -7 -15 -14 -35
-14 -45 0 -10 -5 -15 -10 -12 -6 4 -9 14 -6 23 3 10 8 54 12 100 6 82 -2 105
-23 59 -15 -31 -6 -207 10 -221 7 -6 24 -33 38 -60 18 -36 21 -50 11 -53 -6
-3 -9 -10 -5 -16 4 -6 -10 -1 -31 11 -63 37 -75 25 -27 -26 24 -25 32 -28 41
-17 9 11 17 10 45 -7 19 -11 38 -17 44 -14 5 3 14 -1 21 -9 7 -8 18 -15 25
-15 7 0 18 -7 25 -14 15 -19 91 -44 150 -50 40 -4 43 -3 27 9 -12 8 -14 15 -7
20 6 4 17 -8 25 -27 13 -30 14 -31 14 -8 0 14 -4 43 -9 65 -6 22 -13 77 -16
123 -6 79 -4 85 22 125 15 23 58 71 96 107 37 36 68 74 68 83 0 9 6 17 13 17
20 0 44 30 49 62 6 35 -20 47 -139 61 -51 6 -93 14 -93 18 0 4 22 9 49 11 27
1 47 -1 44 -6 -3 -4 4 -5 15 -2 23 8 123 -21 134 -38 4 -6 8 -30 8 -53 0 -38
-4 -44 -32 -59 l-31 -16 24 -19 24 -18 -32 3 c-35 5 -45 -8 -37 -49 4 -25 3
-26 -11 -11 -9 9 -19 16 -23 16 -3 0 -1 -5 6 -12 15 -15 15 -28 1 -28 -5 0 -8
4 -5 9 3 5 -1 12 -10 15 -8 3 -12 2 -9 -3 3 -5 -3 -12 -13 -15 -14 -5 -18 -15
-17 -41 1 -20 -2 -38 -8 -42 -6 -3 -7 -1 -3 6 4 6 0 14 -8 17 -9 3 -13 11 -9
17 4 6 1 7 -6 2 -9 -5 -10 -10 -2 -18 17 -17 13 -29 -7 -23 -38 12 -46 -80
-21 -236 15 -89 6 -114 -37 -98 -13 5 -31 7 -39 4 -8 -4 -15 -1 -15 4 0 13
-40 12 -58 -1 -17 -14 -29 1 -12 16 10 10 11 9 5 -2 -5 -10 -4 -12 4 -7 17 11
4 25 -19 19 -16 -4 -19 -10 -13 -27 8 -22 9 -96 2 -132 -5 -24 -64 -106 -71
-99 -2 3 -23 -4 -46 -15 -43 -21 -112 -27 -112 -10 0 6 -9 10 -20 10 -11 0
-20 5 -20 11 0 5 -4 7 -10 4 -5 -3 -10 -2 -10 4 0 5 -10 11 -22 13 -16 2 -27
15 -38 46 -9 23 -19 39 -23 36 -8 -8 -11 22 -7 86 1 29 9 53 22 67 11 12 17
26 13 32 -3 6 -1 11 5 11 17 0 40 26 32 35 -4 5 1 5 11 2 11 -4 17 -1 17 8 0
8 8 16 18 16 15 1 15 2 -1 6 -11 3 -16 11 -13 19 4 11 2 12 -14 4 -17 -9 -18
-7 -14 17 3 15 13 33 22 40 16 12 15 12 -3 6 -11 -3 -17 -3 -14 1 4 4 22 11
40 16 32 9 33 8 14 -6 -20 -16 -20 -16 2 -10 12 4 24 2 28 -4 3 -6 11 -8 16
-4 5 3 7 10 3 15 -3 5 -10 7 -15 4 -5 -4 -9 1 -9 10 0 11 -6 14 -24 9 -19 -4
-28 0 -39 18 -17 27 -34 92 -17 68 5 -8 10 -22 10 -30 0 -8 7 -24 15 -34 12
-15 17 -17 29 -7 13 11 13 16 1 34 -18 28 -36 107 -24 107 5 0 9 5 9 11 0 5
-4 7 -10 4 -13 -8 -13 31 1 57 9 16 8 19 -1 13 -10 -6 -11 -1 -6 19 4 15 2 26
-4 26 -5 0 -10 -4 -10 -9 0 -5 -9 -13 -20 -16 -12 -4 -17 -11 -14 -18 4 -7 3
-9 -1 -4 -5 4 -16 0 -25 -8 -14 -13 -19 -13 -23 -2 -3 7 10 23 30 37 18 13 32
29 29 36 -3 8 3 11 18 8 19 -3 25 1 29 24 3 15 1 31 -4 36 -5 6 3 15 22 23 37
15 63 17 54 3 -9 -15 7 -12 32 5 14 10 40 14 77 12 31 -1 57 0 59 3 5 6 -1
-16 -9 -34 -3 -9 0 -14 8 -12 24 3 38 17 39 39 0 12 3 16 6 10 7 -18 55 -16
79 2 17 14 8 15 -101 11 -66 -3 -160 -8 -209 -12 -70 -6 -88 -5 -81 5 4 8 21
11 40 9 19 -2 31 0 28 6 -4 5 5 6 21 2 27 -7 61 8 52 23 -2 3 6 6 19 6 14 0
21 -5 18 -13z m154 12 c-3 -3 -12 -4 -19 -1 -8 3 -5 6 6 6 11 1 17 -2 13 -5z
m216 -1 c-7 -2 -21 -2 -30 0 -10 3 -4 5 12 5 17 0 24 -2 18 -5z m-430 -10 c-7
-2 -21 -2 -30 0 -10 3 -4 5 12 5 17 0 24 -2 18 -5z m357 3 c0 -2 -7 -6 -15
-10 -8 -3 -15 -1 -15 4 0 6 7 10 15 10 8 0 15 -2 15 -4z m-189 -79 c-8 -8 -11
-7 -11 4 0 20 13 34 18 19 3 -7 -1 -17 -7 -23z m167 21 c9 -9 7 -15 -6 -26
-11 -9 -8 -9 10 2 15 9 36 16 48 16 17 0 19 -3 8 -19 -9 -14 -21 -18 -50 -17
-21 2 -41 -1 -44 -6 -3 -4 -12 -8 -20 -8 -11 0 -13 6 -8 23 13 45 38 59 62 35z
m55 5 c-7 -2 -19 -2 -25 0 -7 3 -2 5 12 5 14 0 19 -2 13 -5z m65 -10 c-9 -2
-20 -13 -23 -24 -4 -10 -14 -19 -22 -19 -13 0 -12 5 7 25 13 14 31 24 39 24
13 -1 13 -2 -1 -6z m46 -18 c-4 -8 -12 -15 -19 -15 -7 0 -21 -3 -29 -6 -12 -5
-15 -2 -10 9 3 9 18 18 32 20 15 2 28 5 29 6 1 0 0 -6 -3 -14z m-606 -33 c-2
-8 -10 -18 -18 -20 -12 -4 -13 -2 -3 10 10 11 10 17 0 27 -9 10 -8 11 6 5 10
-3 17 -13 15 -22z m652 19 c0 -5 -9 -7 -20 -4 -11 3 -20 7 -20 9 0 2 9 4 20 4
11 0 20 -4 20 -9z m-763 -33 c-3 -8 -6 -5 -6 6 -1 11 2 17 5 13 3 -3 4 -12 1
-19z m170 0 c-3 -8 -6 -5 -6 6 -1 11 2 17 5 13 3 -3 4 -12 1 -19z m81 -2 c-1
-14 -5 -23 -9 -20 -7 4 0 44 7 44 2 0 3 -11 2 -24z m39 5 c0 -10 -7 -17 -13
-14 -7 3 -10 11 -7 19 8 20 22 17 20 -5z m450 13 c-3 -3 -12 -4 -19 -1 -8 3
-5 6 6 6 11 1 17 -2 13 -5z m-186 -13 c6 10 9 8 9 -8 0 -12 -4 -25 -10 -28 -5
-3 -10 -1 -10 4 0 6 -7 11 -16 11 -14 0 -14 2 -3 16 9 12 14 13 17 4 3 -9 7
-9 13 1z m97 2 c-10 -2 -28 -2 -40 0 -13 2 -5 4 17 4 22 1 32 -1 23 -4z m122
-1 c0 -9 -40 -35 -46 -29 -6 6 25 37 37 37 5 0 9 -3 9 -8z m-68 -16 c19 12
-12 -34 -35 -53 -13 -10 -22 -23 -21 -28 2 -6 -17 -32 -42 -60 -32 -35 -41
-41 -29 -20 10 17 26 39 36 51 11 11 17 23 14 26 -3 3 9 20 27 39 18 19 31 41
30 49 -1 10 0 11 4 2 3 -6 10 -9 16 -6z m-137 -55 c-19 -33 -35 -66 -35 -73 0
-8 -16 -29 -35 -48 -19 -19 -35 -29 -35 -22 0 7 5 12 10 12 6 0 10 8 10 18 0
9 9 28 20 42 24 31 26 47 3 29 -16 -13 -17 -12 -4 3 7 10 16 16 20 13 9 -5 33
22 48 58 7 15 17 27 22 27 6 0 -5 -27 -24 -59z m68 12 c-21 -25 -37 -49 -36
-52 1 -3 -1 -7 -3 -8 -2 -2 -2 0 1 3 2 4 -2 13 -10 21 -13 12 -13 17 1 38 9
14 20 22 25 19 5 -3 6 2 3 10 -5 12 1 16 26 16 l31 0 -38 -47z m-594 20 c-9
-11 -15 -11 -28 -1 -9 7 -17 13 -18 14 -2 0 10 1 27 1 24 0 27 -3 19 -14z
m-35 -11 c3 -5 -1 -9 -9 -9 -8 0 -12 4 -9 9 3 4 7 8 9 8 2 0 6 -4 9 -8z m260
-14 c3 -13 6 -34 6 -48 0 -24 0 -24 -19 -5 -14 14 -18 28 -14 48 6 33 19 35
27 5z m428 -25 c-11 -15 -30 -37 -43 -48 -12 -11 -5 3 17 31 40 53 62 67 26
17z m93 27 c-27 -12 -43 -12 -25 0 8 5 22 9 30 9 10 0 8 -3 -5 -9z m-618 -32
c-3 -7 -5 -2 -5 12 0 14 2 19 5 13 2 -7 2 -19 0 -25z m203 -18 l-8 -35 -1 31
c-1 17 2 34 6 37 11 12 12 3 3 -33z m-23 -67 c-11 -25 -22 -29 -32 -13 -13 20
-27 -3 -21 -34 7 -38 -21 -89 -35 -64 -4 8 -5 25 -2 38 6 22 7 22 20 5 10 -15
13 -15 13 -4 0 8 -5 20 -12 27 -9 9 -7 16 6 31 10 11 15 24 12 29 -3 5 0 25 6
45 l11 37 23 -37 c17 -30 20 -41 11 -60z m233 69 c0 -4 -9 -13 -20 -20 -18
-11 -19 -10 -8 13 10 21 28 26 28 7z m-324 -23 c19 -18 21 -25 12 -45 -6 -13
-19 -24 -30 -24 -15 0 -18 8 -18 45 0 51 4 54 36 24z m304 -39 c-24 -46 -35
-52 -25 -13 5 22 29 51 43 53 1 0 -7 -18 -18 -40z m-576 5 c3 -8 1 -15 -4 -15
-6 0 -10 7 -10 15 0 8 2 15 4 15 2 0 6 -7 10 -15z m536 -41 c-5 -20 -6 -44 -3
-53 4 -14 3 -14 -6 -1 -14 20 -14 63 1 78 17 17 17 16 8 -24z m-110 -17 c13 4
-2 -41 -18 -54 -9 -7 -12 -16 -9 -20 4 -4 13 -1 19 5 19 19 30 14 18 -8 -6
-11 -8 -26 -3 -33 4 -6 -6 -1 -23 13 l-30 25 20 35 20 35 -24 -20 c-21 -18
-23 -18 -17 -2 4 10 3 16 -2 12 -16 -9 -22 14 -10 37 l12 22 20 -25 c11 -13
23 -23 27 -22z m-197 -4 c5 -25 3 -33 -8 -33 -10 0 -13 7 -11 23 3 12 5 28 5
36 1 21 7 10 14 -26z m107 6 c0 -6 -4 -7 -10 -4 -5 3 -10 11 -10 16 0 6 5 7
10 4 6 -3 10 -11 10 -16z m-68 -14 c-2 -14 -8 -25 -12 -25 -4 0 -10 11 -12 25
-4 19 -1 25 12 25 13 0 16 -6 12 -25z m236 -52 c-8 -11 -7 -12 8 -7 15 5 16 4
4 -4 -18 -14 -26 -8 -34 24 -4 15 -2 32 6 41 11 13 13 11 20 -13 4 -17 3 -33
-4 -41z m-140 3 c-14 -8 -10 -14 22 -37 35 -26 76 -86 65 -97 -9 -9 -43 42
-37 57 4 9 1 12 -7 7 -13 -9 -43 12 -36 24 10 16 -13 20 -25 5 -11 -14 -15
-14 -31 1 -10 9 -16 21 -13 26 3 5 15 2 25 -8 21 -19 26 -6 7 15 -11 11 -10
12 1 6 10 -6 12 -2 6 14 -10 33 5 46 23 20 14 -21 14 -24 0 -33z m-208 -20 c0
-5 -7 -3 -15 4 -8 7 -15 20 -15 28 0 13 3 12 15 -4 8 -10 15 -23 15 -28z m45
33 c11 -17 -1 -21 -15 -4 -8 9 -8 15 -2 15 6 0 14 -5 17 -11z m48 -12 c-2 -4
-3 -14 -3 -22 0 -8 -6 -12 -14 -9 -20 8 -16 42 4 39 8 -1 14 -5 13 -8z m22
-27 c3 -5 1 -10 -4 -10 -6 0 -11 5 -11 10 0 6 2 10 4 10 3 0 8 -4 11 -10z
m-161 -15 c3 -8 1 -15 -4 -15 -6 0 -10 7 -10 15 0 8 2 15 4 15 2 0 6 -7 10
-15z m416 -12 c0 -21 -3 -24 -9 -14 -5 8 -7 20 -4 28 8 21 13 15 13 -14z
m-200 -13 c0 -21 -18 -17 -28 6 -11 23 -10 24 8 14 11 -6 20 -15 20 -20z m156
4 c-5 -14 -9 -15 -19 -5 -9 9 -9 14 3 21 18 11 24 6 16 -16z m-236 6 c0 -5 -4
-10 -10 -10 -5 0 -10 5 -10 10 0 6 5 10 10 10 6 0 10 -4 10 -10z m37 -2 c15
-19 12 -46 -5 -53 -23 -9 -29 5 -9 20 16 12 16 14 2 29 -9 9 -12 16 -7 16 5 0
14 -6 19 -12z m143 -80 c7 -11 6 -19 -2 -24 -7 -4 -8 -3 -4 4 4 7 3 12 -1 12
-5 0 -24 21 -42 48 l-33 47 36 -35 c20 -19 41 -43 46 -52z m38 54 c6 -18 -15
-14 -22 4 -4 10 -1 14 6 12 6 -2 14 -10 16 -16z m51 -26 c1 -4 -6 -6 -14 -2
-17 6 -21 -9 -5 -19 6 -4 8 -11 4 -16 -3 -6 -12 -5 -22 3 -13 11 -14 10 -4 -9
11 -19 9 -22 -19 -32 -23 -8 -29 -8 -26 2 2 6 11 11 20 11 11 -1 14 7 12 32
-1 18 2 31 6 28 5 -3 14 7 21 21 11 24 13 25 19 8 4 -10 8 -22 8 -27z m-160
20 c6 -8 10 -20 9 -27 -2 -7 3 -13 11 -14 18 0 31 -37 19 -52 -14 -18 -33 -16
-49 4 -13 15 -11 16 18 10 26 -5 31 -3 26 8 -3 9 -14 13 -28 11 -14 -3 -26 1
-29 9 -3 10 1 12 12 9 12 -4 10 0 -5 11 -12 9 -19 23 -16 31 7 18 17 18 32 0z
m-66 -41 c-3 -9 -8 -14 -10 -11 -3 3 -2 9 2 15 9 16 15 13 8 -4z m27 0 c0 -8
-4 -15 -10 -15 -5 0 -7 7 -4 15 4 8 8 15 10 15 2 0 4 -7 4 -15z m222 -35 c6
-37 -8 -27 -18 14 -4 19 -3 27 3 23 6 -4 13 -20 15 -37z m-215 4 c-3 -3 -12
-4 -19 -1 -8 3 -5 6 6 6 11 1 17 -2 13 -5z m189 -19 c-3 -8 -1 -15 4 -15 6 0
10 -7 10 -15 0 -8 -7 -15 -15 -15 -8 0 -15 6 -15 14 0 18 10 46 17 46 3 0 3
-7 -1 -15z m-46 -30 c-13 -14 -18 -25 -12 -25 6 0 14 4 17 10 4 6 13 5 25 -2
13 -9 16 -15 8 -19 -7 -4 -17 -5 -22 -1 -6 3 -23 7 -39 9 -15 2 -38 8 -49 14
-19 10 -19 12 -5 21 11 5 24 5 36 -2 24 -12 34 -13 26 -1 -3 5 3 12 12 14 10
3 20 5 22 6 3 0 -6 -10 -19 -24z"/>
<path d="M555 1442 c-10 -10 -5 -19 10 -19 8 0 16 6 19 12 4 11 -19 17 -29 7z"/>
<path d="M405 1430 c3 -5 11 -10 16 -10 6 0 7 5 4 10 -3 6 -11 10 -16 10 -6 0
-7 -4 -4 -10z"/>
<path d="M650 1430 c0 -13 30 -13 50 0 11 7 7 10 -17 10 -18 0 -33 -4 -33 -10z"/>
<path d="M655 1229 c-4 -6 -5 -12 -2 -15 2 -3 7 2 10 11 7 17 1 20 -8 4z"/>
<path d="M398 900 c-45 -13 -85 -48 -107 -93 -26 -53 -27 -104 -3 -154 17 -39
42 -71 42 -56 0 4 4 3 8 -2 14 -20 64 -35 116 -35 43 0 61 6 95 31 28 20 41
35 37 45 -3 9 -1 12 4 9 26 -16 39 95 19 154 -11 32 -29 42 -29 17 0 -21 -95
-122 -158 -168 -41 -30 -51 -43 -41 -49 17 -11 99 -12 98 -1 -4 21 3 32 18 32
15 0 14 -2 -3 -15 -31 -23 5 -19 46 6 26 16 31 17 20 5 -23 -29 -67 -46 -117
-46 -58 1 -103 21 -82 38 168 136 232 210 209 238 -33 38 -116 60 -172 44z
m56 -15 c-14 -11 -15 -15 -4 -14 44 4 49 -10 10 -31 -13 -7 -21 -7 -26 2 -4 7
-3 8 4 4 7 -4 12 -3 12 3 0 19 -18 20 -35 1 -17 -18 -12 -46 6 -35 5 4 9 2 9
-3 0 -6 7 -12 15 -16 8 -3 14 0 12 7 -1 7 6 11 17 9 10 -2 23 2 27 10 12 18
11 31 -1 23 -5 -3 -7 0 -4 9 8 20 28 26 45 14 11 -8 10 -9 -5 -4 -13 5 -17 2
-13 -9 4 -8 2 -17 -4 -21 -6 -3 -8 -13 -5 -21 3 -8 -2 -22 -11 -31 -16 -16
-16 -16 -10 1 3 9 2 17 -3 17 -12 0 -24 -20 -26 -42 -1 -10 -2 -21 -3 -24 0
-3 -14 4 -30 15 -15 11 -31 18 -35 14 -3 -3 -6 -1 -6 5 0 7 4 12 9 12 8 0 8 8
2 39 -1 2 -8 -2 -16 -9 -9 -7 -14 -19 -11 -27 3 -8 2 -12 -3 -8 -10 6 -26 -37
-37 -97 -3 -21 -11 -38 -16 -38 -5 0 -7 8 -4 18 4 10 12 40 20 68 7 27 15 55
17 63 2 8 18 30 36 49 18 20 30 39 27 44 -3 4 1 5 9 2 8 -3 18 -1 22 5 3 6 11
11 18 11 6 0 2 -7 -9 -15z m90 -60 c-7 -16 -24 -21 -24 -6 0 8 7 13 27 20 1 1
0 -6 -3 -14z m49 -82 c15 -31 14 -32 -5 -30 -27 5 -39 26 -25 48 6 10 12 17
13 16 0 -1 8 -17 17 -34z m-286 -25 c-3 -7 -5 -2 -5 12 0 14 2 19 5 13 2 -7 2
-19 0 -25z m80 5 c0 -16 -2 -22 -4 -15 -3 6 -9 9 -15 6 -5 -3 -4 3 4 15 7 12
13 21 14 21 1 0 1 -12 1 -27z m143 -23 c0 -5 -5 -10 -11 -10 -5 0 -7 5 -4 10
3 6 8 10 11 10 2 0 4 -4 4 -10z m70 -10 c0 -5 -4 -10 -10 -10 -5 0 -10 5 -10
10 0 6 5 10 10 10 6 0 10 -4 10 -10z m-40 -7 c-1 -13 -51 -45 -58 -38 -4 4 -1
10 6 12 7 3 18 11 25 19 13 15 27 18 27 7z m-213 -35 c-3 -8 -6 -5 -6 6 -1 11
2 17 5 13 3 -3 4 -12 1 -19z"/>
<path d="M425 780 c10 -11 23 -20 28 -20 6 0 1 9 -11 20 -12 11 -24 20 -28 20
-4 0 1 -9 11 -20z"/>
<path d="M571 734 c0 -11 3 -14 6 -6 3 7 2 16 -1 19 -3 4 -6 -2 -5 -13z"/>
<path d="M742 1425 c-6 -14 -10 -25 -9 -25 2 0 13 11 25 25 15 17 17 25 9 25
-8 0 -19 -11 -25 -25z"/>
<path d="M561 1234 c0 -11 3 -14 6 -6 3 7 2 16 -1 19 -3 4 -6 -2 -5 -13z"/>
<path d="M475 1231 c-3 -5 -2 -12 3 -15 5 -3 9 1 9 9 0 17 -3 19 -12 6z"/>
<path d="M112 1410 c0 -14 2 -19 5 -12 2 6 2 18 0 25 -3 6 -5 1 -5 -13z"/>
</g>
</svg>
